%TF.GenerationSoftware,KiCad,Pcbnew,9.0.5*%
%TF.CreationDate,2025-10-28T22:46:26-07:00*%
%TF.ProjectId,LED_resistance,4c45445f-7265-4736-9973-74616e63652e,rev?*%
%TF.SameCoordinates,Original*%
%TF.FileFunction,Soldermask,Top*%
%TF.FilePolarity,Negative*%
%FSLAX46Y46*%
G04 Gerber Fmt 4.6, Leading zero omitted, Abs format (unit mm)*
G04 Created by KiCad (PCBNEW 9.0.5) date 2025-10-28 22:46:26*
%MOMM*%
%LPD*%
G01*
G04 APERTURE LIST*
G04 Aperture macros list*
%AMRoundRect*
0 Rectangle with rounded corners*
0 $1 Rounding radius*
0 $2 $3 $4 $5 $6 $7 $8 $9 X,Y pos of 4 corners*
0 Add a 4 corners polygon primitive as box body*
4,1,4,$2,$3,$4,$5,$6,$7,$8,$9,$2,$3,0*
0 Add four circle primitives for the rounded corners*
1,1,$1+$1,$2,$3*
1,1,$1+$1,$4,$5*
1,1,$1+$1,$6,$7*
1,1,$1+$1,$8,$9*
0 Add four rect primitives between the rounded corners*
20,1,$1+$1,$2,$3,$4,$5,0*
20,1,$1+$1,$4,$5,$6,$7,0*
20,1,$1+$1,$6,$7,$8,$9,0*
20,1,$1+$1,$8,$9,$2,$3,0*%
%AMFreePoly0*
4,1,23,0.500000,-0.750000,0.000000,-0.750000,0.000000,-0.745722,-0.065263,-0.745722,-0.191342,-0.711940,-0.304381,-0.646677,-0.396677,-0.554381,-0.461940,-0.441342,-0.495722,-0.315263,-0.495722,-0.250000,-0.500000,-0.250000,-0.500000,0.250000,-0.495722,0.250000,-0.495722,0.315263,-0.461940,0.441342,-0.396677,0.554381,-0.304381,0.646677,-0.191342,0.711940,-0.065263,0.745722,0.000000,0.745722,
0.000000,0.750000,0.500000,0.750000,0.500000,-0.750000,0.500000,-0.750000,$1*%
%AMFreePoly1*
4,1,23,0.000000,0.745722,0.065263,0.745722,0.191342,0.711940,0.304381,0.646677,0.396677,0.554381,0.461940,0.441342,0.495722,0.315263,0.495722,0.250000,0.500000,0.250000,0.500000,-0.250000,0.495722,-0.250000,0.495722,-0.315263,0.461940,-0.441342,0.396677,-0.554381,0.304381,-0.646677,0.191342,-0.711940,0.065263,-0.745722,0.000000,-0.745722,0.000000,-0.750000,-0.500000,-0.750000,
-0.500000,0.750000,0.000000,0.750000,0.000000,0.745722,0.000000,0.745722,$1*%
G04 Aperture macros list end*
%ADD10RoundRect,0.250000X-0.550000X-0.550000X0.550000X-0.550000X0.550000X0.550000X-0.550000X0.550000X0*%
%ADD11C,1.600000*%
%ADD12C,1.800000*%
%ADD13R,1.800000X1.800000*%
%ADD14RoundRect,0.243750X-0.243750X-0.456250X0.243750X-0.456250X0.243750X0.456250X-0.243750X0.456250X0*%
%ADD15RoundRect,0.218750X-0.218750X-0.256250X0.218750X-0.256250X0.218750X0.256250X-0.218750X0.256250X0*%
%ADD16C,1.700000*%
%ADD17R,1.700000X1.700000*%
%ADD18FreePoly0,270.000000*%
%ADD19FreePoly1,270.000000*%
%ADD20FreePoly0,180.000000*%
%ADD21FreePoly1,180.000000*%
%ADD22RoundRect,0.250000X0.262500X0.450000X-0.262500X0.450000X-0.262500X-0.450000X0.262500X-0.450000X0*%
%ADD23R,4.000000X4.000000*%
%ADD24C,6.000000*%
%ADD25C,3.000000*%
%ADD26C,2.600000*%
%ADD27RoundRect,0.250000X1.050000X-1.050000X1.050000X1.050000X-1.050000X1.050000X-1.050000X-1.050000X0*%
G04 APERTURE END LIST*
%TO.C,JP65*%
G36*
X206490000Y-93972000D02*
G01*
X204990000Y-93972000D01*
X204990000Y-94272000D01*
X206490000Y-94272000D01*
X206490000Y-93972000D01*
G37*
%TO.C,JP41*%
G36*
X107041500Y-62733750D02*
G01*
X106741500Y-62733750D01*
X106741500Y-61233750D01*
X107041500Y-61233750D01*
X107041500Y-62733750D01*
G37*
%TO.C,JP42*%
G36*
X107041500Y-65273750D02*
G01*
X106741500Y-65273750D01*
X106741500Y-63773750D01*
X107041500Y-63773750D01*
X107041500Y-65273750D01*
G37*
%TO.C,JP43*%
G36*
X107041500Y-67813750D02*
G01*
X106741500Y-67813750D01*
X106741500Y-66313750D01*
X107041500Y-66313750D01*
X107041500Y-67813750D01*
G37*
%TO.C,JP44*%
G36*
X107041500Y-70353750D02*
G01*
X106741500Y-70353750D01*
X106741500Y-68853750D01*
X107041500Y-68853750D01*
X107041500Y-70353750D01*
G37*
%TO.C,JP45*%
G36*
X107041500Y-72893750D02*
G01*
X106741500Y-72893750D01*
X106741500Y-71393750D01*
X107041500Y-71393750D01*
X107041500Y-72893750D01*
G37*
%TO.C,JP46*%
G36*
X107041500Y-75433750D02*
G01*
X106741500Y-75433750D01*
X106741500Y-73933750D01*
X107041500Y-73933750D01*
X107041500Y-75433750D01*
G37*
%TO.C,JP47*%
G36*
X107041500Y-77973750D02*
G01*
X106741500Y-77973750D01*
X106741500Y-76473750D01*
X107041500Y-76473750D01*
X107041500Y-77973750D01*
G37*
%TO.C,JP48*%
G36*
X107041500Y-80513750D02*
G01*
X106741500Y-80513750D01*
X106741500Y-79013750D01*
X107041500Y-79013750D01*
X107041500Y-80513750D01*
G37*
%TO.C,JP49*%
G36*
X128641667Y-62733750D02*
G01*
X128341667Y-62733750D01*
X128341667Y-61233750D01*
X128641667Y-61233750D01*
X128641667Y-62733750D01*
G37*
%TO.C,JP50*%
G36*
X128641667Y-65273750D02*
G01*
X128341667Y-65273750D01*
X128341667Y-63773750D01*
X128641667Y-63773750D01*
X128641667Y-65273750D01*
G37*
%TO.C,JP51*%
G36*
X128641667Y-67813750D02*
G01*
X128341667Y-67813750D01*
X128341667Y-66313750D01*
X128641667Y-66313750D01*
X128641667Y-67813750D01*
G37*
%TO.C,JP52*%
G36*
X128641667Y-70353750D02*
G01*
X128341667Y-70353750D01*
X128341667Y-68853750D01*
X128641667Y-68853750D01*
X128641667Y-70353750D01*
G37*
%TO.C,JP53*%
G36*
X128641667Y-72893750D02*
G01*
X128341667Y-72893750D01*
X128341667Y-71393750D01*
X128641667Y-71393750D01*
X128641667Y-72893750D01*
G37*
%TO.C,JP54*%
G36*
X128641667Y-75433750D02*
G01*
X128341667Y-75433750D01*
X128341667Y-73933750D01*
X128641667Y-73933750D01*
X128641667Y-75433750D01*
G37*
%TO.C,JP55*%
G36*
X128641667Y-77973750D02*
G01*
X128341667Y-77973750D01*
X128341667Y-76473750D01*
X128641667Y-76473750D01*
X128641667Y-77973750D01*
G37*
%TO.C,JP56*%
G36*
X128641667Y-80513750D02*
G01*
X128341667Y-80513750D01*
X128341667Y-79013750D01*
X128641667Y-79013750D01*
X128641667Y-80513750D01*
G37*
%TO.C,JP57*%
G36*
X150241833Y-62733750D02*
G01*
X149941833Y-62733750D01*
X149941833Y-61233750D01*
X150241833Y-61233750D01*
X150241833Y-62733750D01*
G37*
%TO.C,JP58*%
G36*
X150241833Y-65273750D02*
G01*
X149941833Y-65273750D01*
X149941833Y-63773750D01*
X150241833Y-63773750D01*
X150241833Y-65273750D01*
G37*
%TO.C,JP59*%
G36*
X150241833Y-67813750D02*
G01*
X149941833Y-67813750D01*
X149941833Y-66313750D01*
X150241833Y-66313750D01*
X150241833Y-67813750D01*
G37*
%TO.C,JP60*%
G36*
X150241833Y-70353750D02*
G01*
X149941833Y-70353750D01*
X149941833Y-68853750D01*
X150241833Y-68853750D01*
X150241833Y-70353750D01*
G37*
%TO.C,JP61*%
G36*
X150241833Y-72893750D02*
G01*
X149941833Y-72893750D01*
X149941833Y-71393750D01*
X150241833Y-71393750D01*
X150241833Y-72893750D01*
G37*
%TO.C,JP62*%
G36*
X150241833Y-75433750D02*
G01*
X149941833Y-75433750D01*
X149941833Y-73933750D01*
X150241833Y-73933750D01*
X150241833Y-75433750D01*
G37*
%TO.C,JP63*%
G36*
X150241833Y-77973750D02*
G01*
X149941833Y-77973750D01*
X149941833Y-76473750D01*
X150241833Y-76473750D01*
X150241833Y-77973750D01*
G37*
%TO.C,JP64*%
G36*
X150241833Y-80513750D02*
G01*
X149941833Y-80513750D01*
X149941833Y-79013750D01*
X150241833Y-79013750D01*
X150241833Y-80513750D01*
G37*
%TO.C,JP33*%
G36*
X171842000Y-62733750D02*
G01*
X171542000Y-62733750D01*
X171542000Y-61233750D01*
X171842000Y-61233750D01*
X171842000Y-62733750D01*
G37*
%TO.C,JP34*%
G36*
X171842000Y-65273750D02*
G01*
X171542000Y-65273750D01*
X171542000Y-63773750D01*
X171842000Y-63773750D01*
X171842000Y-65273750D01*
G37*
%TO.C,JP35*%
G36*
X171842000Y-67813750D02*
G01*
X171542000Y-67813750D01*
X171542000Y-66313750D01*
X171842000Y-66313750D01*
X171842000Y-67813750D01*
G37*
%TO.C,JP36*%
G36*
X171842000Y-70353750D02*
G01*
X171542000Y-70353750D01*
X171542000Y-68853750D01*
X171842000Y-68853750D01*
X171842000Y-70353750D01*
G37*
%TO.C,JP37*%
G36*
X171842000Y-72893750D02*
G01*
X171542000Y-72893750D01*
X171542000Y-71393750D01*
X171842000Y-71393750D01*
X171842000Y-72893750D01*
G37*
%TO.C,JP38*%
G36*
X171842000Y-75433750D02*
G01*
X171542000Y-75433750D01*
X171542000Y-73933750D01*
X171842000Y-73933750D01*
X171842000Y-75433750D01*
G37*
%TO.C,JP39*%
G36*
X171842000Y-77973750D02*
G01*
X171542000Y-77973750D01*
X171542000Y-76473750D01*
X171842000Y-76473750D01*
X171842000Y-77973750D01*
G37*
%TO.C,JP40*%
G36*
X171842000Y-80513750D02*
G01*
X171542000Y-80513750D01*
X171542000Y-79013750D01*
X171842000Y-79013750D01*
X171842000Y-80513750D01*
G37*
%TO.C,JP19*%
G36*
X150266833Y-113526000D02*
G01*
X149966833Y-113526000D01*
X149966833Y-112026000D01*
X150266833Y-112026000D01*
X150266833Y-113526000D01*
G37*
%TO.C,JP23*%
G36*
X150266833Y-123686000D02*
G01*
X149966833Y-123686000D01*
X149966833Y-122186000D01*
X150266833Y-122186000D01*
X150266833Y-123686000D01*
G37*
%TO.C,JP20*%
G36*
X150266833Y-116066000D02*
G01*
X149966833Y-116066000D01*
X149966833Y-114566000D01*
X150266833Y-114566000D01*
X150266833Y-116066000D01*
G37*
%TO.C,JP22*%
G36*
X150266833Y-121146000D02*
G01*
X149966833Y-121146000D01*
X149966833Y-119646000D01*
X150266833Y-119646000D01*
X150266833Y-121146000D01*
G37*
%TO.C,JP24*%
G36*
X150266833Y-126226000D02*
G01*
X149966833Y-126226000D01*
X149966833Y-124726000D01*
X150266833Y-124726000D01*
X150266833Y-126226000D01*
G37*
%TO.C,JP17*%
G36*
X150266833Y-108446000D02*
G01*
X149966833Y-108446000D01*
X149966833Y-106946000D01*
X150266833Y-106946000D01*
X150266833Y-108446000D01*
G37*
%TO.C,JP18*%
G36*
X150266833Y-110986000D02*
G01*
X149966833Y-110986000D01*
X149966833Y-109486000D01*
X150266833Y-109486000D01*
X150266833Y-110986000D01*
G37*
%TO.C,JP21*%
G36*
X150266833Y-118606000D02*
G01*
X149966833Y-118606000D01*
X149966833Y-117106000D01*
X150266833Y-117106000D01*
X150266833Y-118606000D01*
G37*
%TO.C,JP29*%
G36*
X171879500Y-118612500D02*
G01*
X171579500Y-118612500D01*
X171579500Y-117112500D01*
X171879500Y-117112500D01*
X171879500Y-118612500D01*
G37*
%TO.C,JP31*%
G36*
X171879500Y-123692500D02*
G01*
X171579500Y-123692500D01*
X171579500Y-122192500D01*
X171879500Y-122192500D01*
X171879500Y-123692500D01*
G37*
%TO.C,JP26*%
G36*
X171879500Y-110992500D02*
G01*
X171579500Y-110992500D01*
X171579500Y-109492500D01*
X171879500Y-109492500D01*
X171879500Y-110992500D01*
G37*
%TO.C,JP28*%
G36*
X171879500Y-116072500D02*
G01*
X171579500Y-116072500D01*
X171579500Y-114572500D01*
X171879500Y-114572500D01*
X171879500Y-116072500D01*
G37*
%TO.C,JP32*%
G36*
X171879500Y-126232500D02*
G01*
X171579500Y-126232500D01*
X171579500Y-124732500D01*
X171879500Y-124732500D01*
X171879500Y-126232500D01*
G37*
%TO.C,JP30*%
G36*
X171879500Y-121152500D02*
G01*
X171579500Y-121152500D01*
X171579500Y-119652500D01*
X171879500Y-119652500D01*
X171879500Y-121152500D01*
G37*
%TO.C,JP25*%
G36*
X171879500Y-108452500D02*
G01*
X171579500Y-108452500D01*
X171579500Y-106952500D01*
X171879500Y-106952500D01*
X171879500Y-108452500D01*
G37*
%TO.C,JP27*%
G36*
X171879500Y-113532500D02*
G01*
X171579500Y-113532500D01*
X171579500Y-112032500D01*
X171879500Y-112032500D01*
X171879500Y-113532500D01*
G37*
%TO.C,JP13*%
G36*
X128654167Y-118606000D02*
G01*
X128354167Y-118606000D01*
X128354167Y-117106000D01*
X128654167Y-117106000D01*
X128654167Y-118606000D01*
G37*
%TO.C,JP15*%
G36*
X128654167Y-123686000D02*
G01*
X128354167Y-123686000D01*
X128354167Y-122186000D01*
X128654167Y-122186000D01*
X128654167Y-123686000D01*
G37*
%TO.C,JP9*%
G36*
X128654167Y-108446000D02*
G01*
X128354167Y-108446000D01*
X128354167Y-106946000D01*
X128654167Y-106946000D01*
X128654167Y-108446000D01*
G37*
%TO.C,JP11*%
G36*
X128654167Y-113526000D02*
G01*
X128354167Y-113526000D01*
X128354167Y-112026000D01*
X128654167Y-112026000D01*
X128654167Y-113526000D01*
G37*
%TO.C,JP16*%
G36*
X128654167Y-126226000D02*
G01*
X128354167Y-126226000D01*
X128354167Y-124726000D01*
X128654167Y-124726000D01*
X128654167Y-126226000D01*
G37*
%TO.C,JP12*%
G36*
X128654167Y-116066000D02*
G01*
X128354167Y-116066000D01*
X128354167Y-114566000D01*
X128654167Y-114566000D01*
X128654167Y-116066000D01*
G37*
%TO.C,JP10*%
G36*
X128654167Y-110986000D02*
G01*
X128354167Y-110986000D01*
X128354167Y-109486000D01*
X128654167Y-109486000D01*
X128654167Y-110986000D01*
G37*
%TO.C,JP14*%
G36*
X128654167Y-121146000D02*
G01*
X128354167Y-121146000D01*
X128354167Y-119646000D01*
X128654167Y-119646000D01*
X128654167Y-121146000D01*
G37*
%TO.C,JP3*%
G36*
X107041500Y-113526000D02*
G01*
X106741500Y-113526000D01*
X106741500Y-112026000D01*
X107041500Y-112026000D01*
X107041500Y-113526000D01*
G37*
%TO.C,JP5*%
G36*
X107041500Y-118606000D02*
G01*
X106741500Y-118606000D01*
X106741500Y-117106000D01*
X107041500Y-117106000D01*
X107041500Y-118606000D01*
G37*
%TO.C,JP7*%
G36*
X107041500Y-123686000D02*
G01*
X106741500Y-123686000D01*
X106741500Y-122186000D01*
X107041500Y-122186000D01*
X107041500Y-123686000D01*
G37*
%TO.C,JP1*%
G36*
X107041500Y-108446000D02*
G01*
X106741500Y-108446000D01*
X106741500Y-106946000D01*
X107041500Y-106946000D01*
X107041500Y-108446000D01*
G37*
%TO.C,JP2*%
G36*
X107041500Y-110986000D02*
G01*
X106741500Y-110986000D01*
X106741500Y-109486000D01*
X107041500Y-109486000D01*
X107041500Y-110986000D01*
G37*
%TO.C,JP4*%
G36*
X107041500Y-116066000D02*
G01*
X106741500Y-116066000D01*
X106741500Y-114566000D01*
X107041500Y-114566000D01*
X107041500Y-116066000D01*
G37*
%TO.C,JP6*%
G36*
X107041500Y-121146000D02*
G01*
X106741500Y-121146000D01*
X106741500Y-119646000D01*
X107041500Y-119646000D01*
X107041500Y-121146000D01*
G37*
%TO.C,JP8*%
G36*
X107041500Y-126226000D02*
G01*
X106741500Y-126226000D01*
X106741500Y-124726000D01*
X107041500Y-124726000D01*
X107041500Y-126226000D01*
G37*
%TD*%
D10*
%TO.C,SW8*%
X153944333Y-62245250D03*
D11*
X153944333Y-64785250D03*
X153944333Y-67325250D03*
X153944333Y-69865250D03*
X153944333Y-72405250D03*
X153944333Y-74945250D03*
X153944333Y-77485250D03*
X153944333Y-80025250D03*
X161564333Y-80025250D03*
X161564333Y-77485250D03*
X161564333Y-74945250D03*
X161564333Y-72405250D03*
X161564333Y-69865250D03*
X161564333Y-67325250D03*
X161564333Y-64785250D03*
X161564333Y-62245250D03*
%TD*%
D10*
%TO.C,SW6*%
X110744000Y-62245250D03*
D11*
X110744000Y-64785250D03*
X110744000Y-67325250D03*
X110744000Y-69865250D03*
X110744000Y-72405250D03*
X110744000Y-74945250D03*
X110744000Y-77485250D03*
X110744000Y-80025250D03*
X118364000Y-80025250D03*
X118364000Y-77485250D03*
X118364000Y-74945250D03*
X118364000Y-72405250D03*
X118364000Y-69865250D03*
X118364000Y-67325250D03*
X118364000Y-64785250D03*
X118364000Y-62245250D03*
%TD*%
D10*
%TO.C,SW7*%
X132344167Y-62245250D03*
D11*
X132344167Y-64785250D03*
X132344167Y-67325250D03*
X132344167Y-69865250D03*
X132344167Y-72405250D03*
X132344167Y-74945250D03*
X132344167Y-77485250D03*
X132344167Y-80025250D03*
X139964167Y-80025250D03*
X139964167Y-77485250D03*
X139964167Y-74945250D03*
X139964167Y-72405250D03*
X139964167Y-69865250D03*
X139964167Y-67325250D03*
X139964167Y-64785250D03*
X139964167Y-62245250D03*
%TD*%
D10*
%TO.C,SW5*%
X175544500Y-62245250D03*
D11*
X175544500Y-64785250D03*
X175544500Y-67325250D03*
X175544500Y-69865250D03*
X175544500Y-72405250D03*
X175544500Y-74945250D03*
X175544500Y-77485250D03*
X175544500Y-80025250D03*
X183164500Y-80025250D03*
X183164500Y-77485250D03*
X183164500Y-74945250D03*
X183164500Y-72405250D03*
X183164500Y-69865250D03*
X183164500Y-67325250D03*
X183164500Y-64785250D03*
X183164500Y-62245250D03*
%TD*%
D10*
%TO.C,SW3*%
X153969333Y-107957500D03*
D11*
X153969333Y-110497500D03*
X153969333Y-113037500D03*
X153969333Y-115577500D03*
X153969333Y-118117500D03*
X153969333Y-120657500D03*
X153969333Y-123197500D03*
X153969333Y-125737500D03*
X161589333Y-125737500D03*
X161589333Y-123197500D03*
X161589333Y-120657500D03*
X161589333Y-118117500D03*
X161589333Y-115577500D03*
X161589333Y-113037500D03*
X161589333Y-110497500D03*
X161589333Y-107957500D03*
%TD*%
D10*
%TO.C,SW4*%
X175582000Y-107964000D03*
D11*
X175582000Y-110504000D03*
X175582000Y-113044000D03*
X175582000Y-115584000D03*
X175582000Y-118124000D03*
X175582000Y-120664000D03*
X175582000Y-123204000D03*
X175582000Y-125744000D03*
X183202000Y-125744000D03*
X183202000Y-123204000D03*
X183202000Y-120664000D03*
X183202000Y-118124000D03*
X183202000Y-115584000D03*
X183202000Y-113044000D03*
X183202000Y-110504000D03*
X183202000Y-107964000D03*
%TD*%
D10*
%TO.C,SW2*%
X132356667Y-107957500D03*
D11*
X132356667Y-110497500D03*
X132356667Y-113037500D03*
X132356667Y-115577500D03*
X132356667Y-118117500D03*
X132356667Y-120657500D03*
X132356667Y-123197500D03*
X132356667Y-125737500D03*
X139976667Y-125737500D03*
X139976667Y-123197500D03*
X139976667Y-120657500D03*
X139976667Y-118117500D03*
X139976667Y-115577500D03*
X139976667Y-113037500D03*
X139976667Y-110497500D03*
X139976667Y-107957500D03*
%TD*%
D10*
%TO.C,SW1*%
X110744000Y-107957500D03*
D11*
X110744000Y-110497500D03*
X110744000Y-113037500D03*
X110744000Y-115577500D03*
X110744000Y-118117500D03*
X110744000Y-120657500D03*
X110744000Y-123197500D03*
X110744000Y-125737500D03*
X118364000Y-125737500D03*
X118364000Y-123197500D03*
X118364000Y-120657500D03*
X118364000Y-118117500D03*
X118364000Y-115577500D03*
X118364000Y-113037500D03*
X118364000Y-110497500D03*
X118364000Y-107957500D03*
%TD*%
D12*
%TO.C,D16*%
X115824000Y-86106000D03*
D13*
X113284000Y-86106000D03*
%TD*%
D14*
%TO.C,D17*%
X115486500Y-90693250D03*
X113611500Y-90693250D03*
%TD*%
D15*
%TO.C,D18*%
X113761500Y-92725250D03*
X115336500Y-92725250D03*
%TD*%
D12*
%TO.C,D19*%
X137424167Y-86106000D03*
D13*
X134884167Y-86106000D03*
%TD*%
D14*
%TO.C,D20*%
X137086667Y-90693250D03*
X135211667Y-90693250D03*
%TD*%
D15*
%TO.C,D21*%
X136936667Y-92725250D03*
X135361667Y-92725250D03*
%TD*%
D12*
%TO.C,D22*%
X159024333Y-86106000D03*
D13*
X156484333Y-86106000D03*
%TD*%
D14*
%TO.C,D23*%
X158686833Y-90693250D03*
X156811833Y-90693250D03*
%TD*%
D15*
%TO.C,D24*%
X158536833Y-92725250D03*
X156961833Y-92725250D03*
%TD*%
D12*
%TO.C,D13*%
X180624500Y-86106000D03*
D13*
X178084500Y-86106000D03*
%TD*%
D14*
%TO.C,D14*%
X180287000Y-90693250D03*
X178412000Y-90693250D03*
%TD*%
D15*
%TO.C,D15*%
X180137000Y-92725250D03*
X178562000Y-92725250D03*
%TD*%
D16*
%TO.C,JP66*%
X202184000Y-95504000D03*
D17*
X202184000Y-92964000D03*
%TD*%
D18*
%TO.C,JP65*%
X205740000Y-93472000D03*
D19*
X205740000Y-94772000D03*
%TD*%
D20*
%TO.C,JP41*%
X107541500Y-61983750D03*
D21*
X106241500Y-61983750D03*
%TD*%
D20*
%TO.C,JP42*%
X107541500Y-64523750D03*
D21*
X106241500Y-64523750D03*
%TD*%
D20*
%TO.C,JP43*%
X107541500Y-67063750D03*
D21*
X106241500Y-67063750D03*
%TD*%
D20*
%TO.C,JP44*%
X107541500Y-69603750D03*
D21*
X106241500Y-69603750D03*
%TD*%
D20*
%TO.C,JP45*%
X107541500Y-72143750D03*
D21*
X106241500Y-72143750D03*
%TD*%
D20*
%TO.C,JP46*%
X107541500Y-74683750D03*
D21*
X106241500Y-74683750D03*
%TD*%
D20*
%TO.C,JP47*%
X107541500Y-77223750D03*
D21*
X106241500Y-77223750D03*
%TD*%
D20*
%TO.C,JP48*%
X107541500Y-79763750D03*
D21*
X106241500Y-79763750D03*
%TD*%
D20*
%TO.C,JP49*%
X129141667Y-61983750D03*
D21*
X127841667Y-61983750D03*
%TD*%
D20*
%TO.C,JP50*%
X129141667Y-64523750D03*
D21*
X127841667Y-64523750D03*
%TD*%
D20*
%TO.C,JP51*%
X129141667Y-67063750D03*
D21*
X127841667Y-67063750D03*
%TD*%
D20*
%TO.C,JP52*%
X129141667Y-69603750D03*
D21*
X127841667Y-69603750D03*
%TD*%
D20*
%TO.C,JP53*%
X129141667Y-72143750D03*
D21*
X127841667Y-72143750D03*
%TD*%
D20*
%TO.C,JP54*%
X129141667Y-74683750D03*
D21*
X127841667Y-74683750D03*
%TD*%
D20*
%TO.C,JP55*%
X129141667Y-77223750D03*
D21*
X127841667Y-77223750D03*
%TD*%
D20*
%TO.C,JP56*%
X129141667Y-79763750D03*
D21*
X127841667Y-79763750D03*
%TD*%
D20*
%TO.C,JP57*%
X150741833Y-61983750D03*
D21*
X149441833Y-61983750D03*
%TD*%
D20*
%TO.C,JP58*%
X150741833Y-64523750D03*
D21*
X149441833Y-64523750D03*
%TD*%
D20*
%TO.C,JP59*%
X150741833Y-67063750D03*
D21*
X149441833Y-67063750D03*
%TD*%
D20*
%TO.C,JP60*%
X150741833Y-69603750D03*
D21*
X149441833Y-69603750D03*
%TD*%
D20*
%TO.C,JP61*%
X150741833Y-72143750D03*
D21*
X149441833Y-72143750D03*
%TD*%
D20*
%TO.C,JP62*%
X150741833Y-74683750D03*
D21*
X149441833Y-74683750D03*
%TD*%
D20*
%TO.C,JP63*%
X150741833Y-77223750D03*
D21*
X149441833Y-77223750D03*
%TD*%
D20*
%TO.C,JP64*%
X150741833Y-79763750D03*
D21*
X149441833Y-79763750D03*
%TD*%
D20*
%TO.C,JP33*%
X172342000Y-61983750D03*
D21*
X171042000Y-61983750D03*
%TD*%
D20*
%TO.C,JP34*%
X172342000Y-64523750D03*
D21*
X171042000Y-64523750D03*
%TD*%
D20*
%TO.C,JP35*%
X172342000Y-67063750D03*
D21*
X171042000Y-67063750D03*
%TD*%
D20*
%TO.C,JP36*%
X172342000Y-69603750D03*
D21*
X171042000Y-69603750D03*
%TD*%
D20*
%TO.C,JP37*%
X172342000Y-72143750D03*
D21*
X171042000Y-72143750D03*
%TD*%
D20*
%TO.C,JP38*%
X172342000Y-74683750D03*
D21*
X171042000Y-74683750D03*
%TD*%
D20*
%TO.C,JP39*%
X172342000Y-77223750D03*
D21*
X171042000Y-77223750D03*
%TD*%
D20*
%TO.C,JP40*%
X172342000Y-79763750D03*
D21*
X171042000Y-79763750D03*
%TD*%
D22*
%TO.C,R46*%
X123044000Y-59951750D03*
X121219000Y-59951750D03*
%TD*%
%TO.C,R47*%
X123044000Y-62491750D03*
X121219000Y-62491750D03*
%TD*%
%TO.C,R48*%
X123044000Y-65031750D03*
X121219000Y-65031750D03*
%TD*%
%TO.C,R49*%
X123044000Y-67571750D03*
X121219000Y-67571750D03*
%TD*%
%TO.C,R50*%
X123044000Y-70111750D03*
X121219000Y-70111750D03*
%TD*%
%TO.C,R51*%
X123044000Y-72651750D03*
X121219000Y-72651750D03*
%TD*%
%TO.C,R52*%
X123044000Y-75191750D03*
X121219000Y-75191750D03*
%TD*%
%TO.C,R53*%
X123044000Y-77731750D03*
X121219000Y-77731750D03*
%TD*%
%TO.C,R54*%
X123044000Y-80271750D03*
X121219000Y-80271750D03*
%TD*%
%TO.C,R55*%
X144644167Y-59951750D03*
X142819167Y-59951750D03*
%TD*%
%TO.C,R56*%
X144644167Y-62491750D03*
X142819167Y-62491750D03*
%TD*%
%TO.C,R57*%
X144644167Y-65031750D03*
X142819167Y-65031750D03*
%TD*%
%TO.C,R58*%
X144644167Y-67571750D03*
X142819167Y-67571750D03*
%TD*%
%TO.C,R59*%
X144644167Y-70111750D03*
X142819167Y-70111750D03*
%TD*%
%TO.C,R60*%
X144644167Y-72651750D03*
X142819167Y-72651750D03*
%TD*%
%TO.C,R61*%
X144644167Y-75191750D03*
X142819167Y-75191750D03*
%TD*%
%TO.C,R62*%
X144644167Y-77731750D03*
X142819167Y-77731750D03*
%TD*%
%TO.C,R63*%
X144644167Y-80271750D03*
X142819167Y-80271750D03*
%TD*%
%TO.C,R64*%
X166244333Y-59951750D03*
X164419333Y-59951750D03*
%TD*%
%TO.C,R65*%
X166244333Y-62491750D03*
X164419333Y-62491750D03*
%TD*%
%TO.C,R66*%
X166244333Y-65031750D03*
X164419333Y-65031750D03*
%TD*%
%TO.C,R67*%
X166244333Y-67571750D03*
X164419333Y-67571750D03*
%TD*%
%TO.C,R68*%
X166244333Y-70111750D03*
X164419333Y-70111750D03*
%TD*%
%TO.C,R69*%
X166244333Y-72651750D03*
X164419333Y-72651750D03*
%TD*%
%TO.C,R70*%
X166244333Y-75191750D03*
X164419333Y-75191750D03*
%TD*%
%TO.C,R71*%
X166244333Y-77731750D03*
X164419333Y-77731750D03*
%TD*%
%TO.C,R72*%
X166244333Y-80271750D03*
X164419333Y-80271750D03*
%TD*%
%TO.C,R37*%
X187844500Y-59951750D03*
X186019500Y-59951750D03*
%TD*%
%TO.C,R38*%
X187844500Y-62491750D03*
X186019500Y-62491750D03*
%TD*%
%TO.C,R39*%
X187844500Y-65031750D03*
X186019500Y-65031750D03*
%TD*%
%TO.C,R40*%
X187844500Y-67571750D03*
X186019500Y-67571750D03*
%TD*%
%TO.C,R41*%
X187844500Y-70111750D03*
X186019500Y-70111750D03*
%TD*%
%TO.C,R42*%
X187844500Y-72651750D03*
X186019500Y-72651750D03*
%TD*%
%TO.C,R43*%
X187844500Y-75191750D03*
X186019500Y-75191750D03*
%TD*%
%TO.C,R44*%
X187844500Y-77731750D03*
X186019500Y-77731750D03*
%TD*%
%TO.C,R45*%
X187844500Y-80271750D03*
X186019500Y-80271750D03*
%TD*%
D23*
%TO.C,TP18*%
X129794000Y-93726000D03*
%TD*%
%TO.C,TP19*%
X151384000Y-93980000D03*
%TD*%
%TO.C,TP17*%
X108204000Y-93726000D03*
%TD*%
%TO.C,TP20*%
X172974000Y-93726000D03*
%TD*%
D24*
%TO.C,TP9*%
X193040000Y-63246000D03*
%TD*%
%TO.C,TP10*%
X193040000Y-84582000D03*
%TD*%
%TO.C,TP11*%
X201168000Y-63246000D03*
%TD*%
%TO.C,TP12*%
X201168000Y-84582000D03*
%TD*%
D25*
%TO.C,TP14*%
X108204000Y-86121250D03*
%TD*%
%TO.C,TP15*%
X129804167Y-86121250D03*
%TD*%
%TO.C,TP16*%
X151404333Y-86121250D03*
%TD*%
%TO.C,TP13*%
X173004500Y-86121250D03*
%TD*%
D26*
%TO.C,J2*%
X202356500Y-71379000D03*
D27*
X202356500Y-76459000D03*
%TD*%
D22*
%TO.C,R20*%
X164444333Y-108204000D03*
X166269333Y-108204000D03*
%TD*%
%TO.C,R23*%
X164444333Y-115824000D03*
X166269333Y-115824000D03*
%TD*%
D25*
%TO.C,TP7*%
X151640833Y-101600000D03*
%TD*%
D21*
%TO.C,JP19*%
X149466833Y-112776000D03*
D20*
X150766833Y-112776000D03*
%TD*%
D21*
%TO.C,JP23*%
X149466833Y-122936000D03*
D20*
X150766833Y-122936000D03*
%TD*%
D22*
%TO.C,R26*%
X164444333Y-123444000D03*
X166269333Y-123444000D03*
%TD*%
D21*
%TO.C,JP20*%
X149466833Y-115316000D03*
D20*
X150766833Y-115316000D03*
%TD*%
D21*
%TO.C,JP22*%
X149466833Y-120396000D03*
D20*
X150766833Y-120396000D03*
%TD*%
D15*
%TO.C,D9*%
X158524333Y-94996000D03*
X156949333Y-94996000D03*
%TD*%
D12*
%TO.C,D7*%
X159001833Y-101600000D03*
D13*
X156461833Y-101600000D03*
%TD*%
D21*
%TO.C,JP24*%
X149466833Y-125476000D03*
D20*
X150766833Y-125476000D03*
%TD*%
D14*
%TO.C,D8*%
X158674333Y-97028000D03*
X156799333Y-97028000D03*
%TD*%
D21*
%TO.C,JP17*%
X149466833Y-107696000D03*
D20*
X150766833Y-107696000D03*
%TD*%
D22*
%TO.C,R24*%
X164444333Y-118364000D03*
X166269333Y-118364000D03*
%TD*%
D21*
%TO.C,JP18*%
X149466833Y-110236000D03*
D20*
X150766833Y-110236000D03*
%TD*%
D22*
%TO.C,R21*%
X164444333Y-110744000D03*
X166269333Y-110744000D03*
%TD*%
%TO.C,R27*%
X164444333Y-125984000D03*
X166269333Y-125984000D03*
%TD*%
%TO.C,R25*%
X164444333Y-120904000D03*
X166269333Y-120904000D03*
%TD*%
%TO.C,R19*%
X164444333Y-105664000D03*
X166269333Y-105664000D03*
%TD*%
D21*
%TO.C,JP21*%
X149466833Y-117856000D03*
D20*
X150766833Y-117856000D03*
%TD*%
D22*
%TO.C,R22*%
X164444333Y-113284000D03*
X166269333Y-113284000D03*
%TD*%
%TO.C,R32*%
X186057000Y-115830500D03*
X187882000Y-115830500D03*
%TD*%
D21*
%TO.C,JP29*%
X171079500Y-117862500D03*
D20*
X172379500Y-117862500D03*
%TD*%
D22*
%TO.C,R34*%
X186057000Y-120910500D03*
X187882000Y-120910500D03*
%TD*%
%TO.C,R31*%
X186057000Y-113290500D03*
X187882000Y-113290500D03*
%TD*%
%TO.C,R28*%
X186057000Y-105670500D03*
X187882000Y-105670500D03*
%TD*%
D21*
%TO.C,JP31*%
X171079500Y-122942500D03*
D20*
X172379500Y-122942500D03*
%TD*%
D22*
%TO.C,R33*%
X186057000Y-118370500D03*
X187882000Y-118370500D03*
%TD*%
D21*
%TO.C,JP26*%
X171079500Y-110242500D03*
D20*
X172379500Y-110242500D03*
%TD*%
D21*
%TO.C,JP28*%
X171079500Y-115322500D03*
D20*
X172379500Y-115322500D03*
%TD*%
D14*
%TO.C,D11*%
X180287000Y-97034500D03*
X178412000Y-97034500D03*
%TD*%
D22*
%TO.C,R29*%
X186057000Y-108210500D03*
X187882000Y-108210500D03*
%TD*%
D21*
%TO.C,JP32*%
X171079500Y-125482500D03*
D20*
X172379500Y-125482500D03*
%TD*%
D21*
%TO.C,JP30*%
X171079500Y-120402500D03*
D20*
X172379500Y-120402500D03*
%TD*%
D15*
%TO.C,D12*%
X180137000Y-95002500D03*
X178562000Y-95002500D03*
%TD*%
D25*
%TO.C,TP8*%
X173253500Y-101606500D03*
%TD*%
D22*
%TO.C,R30*%
X186057000Y-110750500D03*
X187882000Y-110750500D03*
%TD*%
%TO.C,R36*%
X186057000Y-125990500D03*
X187882000Y-125990500D03*
%TD*%
D21*
%TO.C,JP25*%
X171079500Y-107702500D03*
D20*
X172379500Y-107702500D03*
%TD*%
D22*
%TO.C,R35*%
X186057000Y-123450500D03*
X187882000Y-123450500D03*
%TD*%
D21*
%TO.C,JP27*%
X171079500Y-112782500D03*
D20*
X172379500Y-112782500D03*
%TD*%
D12*
%TO.C,D10*%
X180614500Y-101606500D03*
D13*
X178074500Y-101606500D03*
%TD*%
D24*
%TO.C,TP4*%
X200914000Y-124206000D03*
%TD*%
%TO.C,TP3*%
X200914000Y-102870000D03*
%TD*%
%TO.C,TP1*%
X192786000Y-102870000D03*
%TD*%
%TO.C,TP2*%
X192786000Y-124206000D03*
%TD*%
D27*
%TO.C,J1*%
X202102500Y-116083000D03*
D26*
X202102500Y-111003000D03*
%TD*%
D22*
%TO.C,R13*%
X142831667Y-113284000D03*
X144656667Y-113284000D03*
%TD*%
D12*
%TO.C,D4*%
X137389167Y-101600000D03*
D13*
X134849167Y-101600000D03*
%TD*%
D21*
%TO.C,JP13*%
X127854167Y-117856000D03*
D20*
X129154167Y-117856000D03*
%TD*%
D21*
%TO.C,JP15*%
X127854167Y-122936000D03*
D20*
X129154167Y-122936000D03*
%TD*%
D21*
%TO.C,JP9*%
X127854167Y-107696000D03*
D20*
X129154167Y-107696000D03*
%TD*%
D22*
%TO.C,R16*%
X142831667Y-120904000D03*
X144656667Y-120904000D03*
%TD*%
%TO.C,R12*%
X142831667Y-110744000D03*
X144656667Y-110744000D03*
%TD*%
%TO.C,R18*%
X142831667Y-125984000D03*
X144656667Y-125984000D03*
%TD*%
D21*
%TO.C,JP11*%
X127854167Y-112776000D03*
D20*
X129154167Y-112776000D03*
%TD*%
D22*
%TO.C,R14*%
X142831667Y-115824000D03*
X144656667Y-115824000D03*
%TD*%
D21*
%TO.C,JP16*%
X127854167Y-125476000D03*
D20*
X129154167Y-125476000D03*
%TD*%
D22*
%TO.C,R17*%
X142831667Y-123444000D03*
X144656667Y-123444000D03*
%TD*%
%TO.C,R15*%
X142831667Y-118364000D03*
X144656667Y-118364000D03*
%TD*%
%TO.C,R11*%
X142831667Y-108204000D03*
X144656667Y-108204000D03*
%TD*%
%TO.C,R10*%
X142831667Y-105664000D03*
X144656667Y-105664000D03*
%TD*%
D21*
%TO.C,JP12*%
X127854167Y-115316000D03*
D20*
X129154167Y-115316000D03*
%TD*%
D21*
%TO.C,JP10*%
X127854167Y-110236000D03*
D20*
X129154167Y-110236000D03*
%TD*%
D14*
%TO.C,D5*%
X137061667Y-97028000D03*
X135186667Y-97028000D03*
%TD*%
D15*
%TO.C,D6*%
X136911667Y-94996000D03*
X135336667Y-94996000D03*
%TD*%
D21*
%TO.C,JP14*%
X127854167Y-120396000D03*
D20*
X129154167Y-120396000D03*
%TD*%
D21*
%TO.C,JP3*%
X106241500Y-112776000D03*
D20*
X107541500Y-112776000D03*
%TD*%
D21*
%TO.C,JP5*%
X106241500Y-117856000D03*
D20*
X107541500Y-117856000D03*
%TD*%
D22*
%TO.C,R9*%
X121219000Y-125984000D03*
X123044000Y-125984000D03*
%TD*%
%TO.C,R8*%
X121219000Y-123444000D03*
X123044000Y-123444000D03*
%TD*%
%TO.C,R7*%
X121219000Y-120904000D03*
X123044000Y-120904000D03*
%TD*%
%TO.C,R6*%
X121219000Y-118364000D03*
X123044000Y-118364000D03*
%TD*%
%TO.C,R5*%
X121219000Y-115824000D03*
X123044000Y-115824000D03*
%TD*%
%TO.C,R4*%
X121219000Y-113284000D03*
X123044000Y-113284000D03*
%TD*%
%TO.C,R3*%
X121219000Y-110744000D03*
X123044000Y-110744000D03*
%TD*%
%TO.C,R2*%
X121219000Y-108204000D03*
X123044000Y-108204000D03*
%TD*%
%TO.C,R1*%
X121219000Y-105664000D03*
X123044000Y-105664000D03*
%TD*%
D21*
%TO.C,JP7*%
X106241500Y-122936000D03*
D20*
X107541500Y-122936000D03*
%TD*%
D21*
%TO.C,JP1*%
X106241500Y-107696000D03*
D20*
X107541500Y-107696000D03*
%TD*%
D21*
%TO.C,JP2*%
X106241500Y-110236000D03*
D20*
X107541500Y-110236000D03*
%TD*%
D21*
%TO.C,JP4*%
X106241500Y-115316000D03*
D20*
X107541500Y-115316000D03*
%TD*%
D14*
%TO.C,D2*%
X115449000Y-97028000D03*
X113574000Y-97028000D03*
%TD*%
D15*
%TO.C,D3*%
X115299000Y-94996000D03*
X113724000Y-94996000D03*
%TD*%
D12*
%TO.C,D1*%
X115776500Y-101600000D03*
D13*
X113236500Y-101600000D03*
%TD*%
D21*
%TO.C,JP6*%
X106241500Y-120396000D03*
D20*
X107541500Y-120396000D03*
%TD*%
%TO.C,JP8*%
X107541500Y-125476000D03*
D21*
X106241500Y-125476000D03*
%TD*%
D25*
%TO.C,TP6*%
X130028167Y-101600000D03*
%TD*%
%TO.C,TP5*%
X108415500Y-101600000D03*
%TD*%
M02*
