%TF.GenerationSoftware,KiCad,Pcbnew,9.0.5*%
%TF.CreationDate,2025-10-28T22:46:26-07:00*%
%TF.ProjectId,LED_resistance,4c45445f-7265-4736-9973-74616e63652e,rev?*%
%TF.SameCoordinates,Original*%
%TF.FileFunction,Legend,Bot*%
%TF.FilePolarity,Positive*%
%FSLAX46Y46*%
G04 Gerber Fmt 4.6, Leading zero omitted, Abs format (unit mm)*
G04 Created by KiCad (PCBNEW 9.0.5) date 2025-10-28 22:46:26*
%MOMM*%
%LPD*%
G01*
G04 APERTURE LIST*
G04 Aperture macros list*
%AMRoundRect*
0 Rectangle with rounded corners*
0 $1 Rounding radius*
0 $2 $3 $4 $5 $6 $7 $8 $9 X,Y pos of 4 corners*
0 Add a 4 corners polygon primitive as box body*
4,1,4,$2,$3,$4,$5,$6,$7,$8,$9,$2,$3,0*
0 Add four circle primitives for the rounded corners*
1,1,$1+$1,$2,$3*
1,1,$1+$1,$4,$5*
1,1,$1+$1,$6,$7*
1,1,$1+$1,$8,$9*
0 Add four rect primitives between the rounded corners*
20,1,$1+$1,$2,$3,$4,$5,0*
20,1,$1+$1,$4,$5,$6,$7,0*
20,1,$1+$1,$6,$7,$8,$9,0*
20,1,$1+$1,$8,$9,$2,$3,0*%
G04 Aperture macros list end*
%ADD10C,0.100000*%
%ADD11RoundRect,0.250000X-0.550000X-0.550000X0.550000X-0.550000X0.550000X0.550000X-0.550000X0.550000X0*%
%ADD12C,1.600000*%
%ADD13C,1.800000*%
%ADD14R,1.800000X1.800000*%
%ADD15C,1.700000*%
%ADD16R,1.700000X1.700000*%
%ADD17C,6.000000*%
%ADD18C,2.600000*%
%ADD19RoundRect,0.250000X1.050000X-1.050000X1.050000X1.050000X-1.050000X1.050000X-1.050000X-1.050000X0*%
G04 APERTURE END LIST*
D10*
X103886000Y-88138000D02*
X134874000Y-88138000D01*
X134874000Y-99314000D01*
X103886000Y-99314000D01*
X103886000Y-88138000D01*
G36*
X133690021Y-91808029D02*
G01*
X133690021Y-93257000D01*
X132814319Y-93257000D01*
X132814319Y-93118422D01*
X133536790Y-93118422D01*
X133536790Y-91808029D01*
X133690021Y-91808029D01*
G37*
G36*
X132638831Y-92192345D02*
G01*
X132638831Y-93257000D01*
X132496040Y-93257000D01*
X132496040Y-92192345D01*
X132638831Y-92192345D01*
G37*
G36*
X132643044Y-91829095D02*
G01*
X132643044Y-92018047D01*
X132491919Y-92018047D01*
X132491919Y-91829095D01*
X132643044Y-91829095D01*
G37*
G36*
X131888845Y-92174301D02*
G01*
X131937270Y-92183094D01*
X131980258Y-92196889D01*
X132020271Y-92215982D01*
X132090196Y-92268909D01*
X132097528Y-92276334D01*
X132145325Y-92343089D01*
X132178758Y-92431152D01*
X132196452Y-92546359D01*
X132198369Y-92606062D01*
X132198369Y-92753065D01*
X132195438Y-92826892D01*
X132186646Y-92893693D01*
X132173511Y-92948511D01*
X132155497Y-92997486D01*
X132134454Y-93037646D01*
X132109224Y-93072796D01*
X132097528Y-93085907D01*
X132063814Y-93117159D01*
X132027182Y-93142969D01*
X131947348Y-93177655D01*
X131855360Y-93191687D01*
X131839241Y-93191970D01*
X131786639Y-93189037D01*
X131738231Y-93180232D01*
X131666042Y-93152036D01*
X131631508Y-93129729D01*
X131600847Y-93102889D01*
X131551553Y-93036540D01*
X131551553Y-93185650D01*
X131554484Y-93242883D01*
X131563278Y-93293559D01*
X131576174Y-93333486D01*
X131593801Y-93368123D01*
X131614378Y-93395520D01*
X131639024Y-93418369D01*
X131699229Y-93449990D01*
X131778640Y-93464304D01*
X131801414Y-93464911D01*
X131851485Y-93461977D01*
X131896231Y-93453161D01*
X131932244Y-93440050D01*
X131963885Y-93422062D01*
X131964171Y-93421863D01*
X131990932Y-93399724D01*
X132011776Y-93374558D01*
X132025995Y-93348082D01*
X132034947Y-93318933D01*
X132036620Y-93309573D01*
X132179410Y-93309573D01*
X132172902Y-93353320D01*
X132160782Y-93393772D01*
X132143957Y-93429350D01*
X132122008Y-93461924D01*
X132069226Y-93513271D01*
X131993549Y-93555897D01*
X131899102Y-93581562D01*
X131801414Y-93588834D01*
X131742953Y-93585903D01*
X131688861Y-93577110D01*
X131642150Y-93563556D01*
X131599269Y-93544857D01*
X131561616Y-93522005D01*
X131527506Y-93494389D01*
X131510612Y-93477551D01*
X131481929Y-93442567D01*
X131457869Y-93403945D01*
X131423464Y-93315222D01*
X131407523Y-93207637D01*
X131406656Y-93173010D01*
X131406656Y-92627036D01*
X131551553Y-92627036D01*
X131551553Y-92742532D01*
X131554483Y-92799768D01*
X131563270Y-92852228D01*
X131576687Y-92896721D01*
X131595156Y-92937104D01*
X131618781Y-92973525D01*
X131643017Y-93000506D01*
X131670879Y-93022575D01*
X131736043Y-93051590D01*
X131818266Y-93061727D01*
X131861319Y-93058796D01*
X131900022Y-93050004D01*
X131931823Y-93036720D01*
X131959936Y-93018463D01*
X132004079Y-92968666D01*
X132035070Y-92897217D01*
X132051716Y-92797076D01*
X132053472Y-92744639D01*
X132053472Y-92616595D01*
X132050541Y-92550836D01*
X132041750Y-92492710D01*
X132028933Y-92447219D01*
X132011435Y-92407823D01*
X131991366Y-92377168D01*
X131967393Y-92351596D01*
X131910584Y-92316809D01*
X131838030Y-92300543D01*
X131809840Y-92299415D01*
X131765511Y-92302346D01*
X131725312Y-92311139D01*
X131691727Y-92324530D01*
X131661692Y-92342963D01*
X131616674Y-92388716D01*
X131577826Y-92461776D01*
X131555853Y-92554371D01*
X131551553Y-92627036D01*
X131406656Y-92627036D01*
X131406656Y-92183919D01*
X131551553Y-92183919D01*
X131551553Y-92333029D01*
X131577009Y-92293438D01*
X131606075Y-92259401D01*
X131637095Y-92232158D01*
X131671383Y-92209946D01*
X131748908Y-92180804D01*
X131837134Y-92171371D01*
X131888845Y-92174301D01*
G37*
G36*
X131092041Y-91808029D02*
G01*
X131092041Y-93257000D01*
X130949250Y-93257000D01*
X130949250Y-92578768D01*
X130946321Y-92527420D01*
X130937540Y-92481205D01*
X130924353Y-92443339D01*
X130906262Y-92409788D01*
X130881015Y-92378183D01*
X130853466Y-92354011D01*
X130822665Y-92334909D01*
X130752169Y-92312061D01*
X130699298Y-92307841D01*
X130653941Y-92310773D01*
X130612839Y-92319571D01*
X130578607Y-92332939D01*
X130548018Y-92351335D01*
X130518772Y-92377176D01*
X130480370Y-92435117D01*
X130458398Y-92511919D01*
X130453651Y-92578768D01*
X130453651Y-93257000D01*
X130310861Y-93257000D01*
X130310861Y-92557793D01*
X130313792Y-92496370D01*
X130322584Y-92440097D01*
X130335968Y-92392532D01*
X130354387Y-92349381D01*
X130376559Y-92312456D01*
X130403278Y-92279509D01*
X130404284Y-92278441D01*
X130435188Y-92250071D01*
X130469622Y-92226500D01*
X130548622Y-92193877D01*
X130644903Y-92180120D01*
X130663669Y-92179797D01*
X130715941Y-92182728D01*
X130764425Y-92191525D01*
X130806599Y-92205166D01*
X130845413Y-92224010D01*
X130911313Y-92275613D01*
X130949250Y-92322587D01*
X130949250Y-91808029D01*
X131092041Y-91808029D01*
G37*
G36*
X129771206Y-92305735D02*
G01*
X129531787Y-92305735D01*
X129531787Y-92192345D01*
X129771206Y-92192345D01*
X129771206Y-91881576D01*
X129916103Y-91948804D01*
X129916103Y-92192345D01*
X130081975Y-92192345D01*
X130081975Y-92305735D01*
X129916103Y-92305735D01*
X129916103Y-92992484D01*
X129913174Y-93041441D01*
X129904392Y-93085825D01*
X129891072Y-93122796D01*
X129872764Y-93155849D01*
X129847868Y-93186658D01*
X129821070Y-93210056D01*
X129790684Y-93228740D01*
X129718928Y-93252000D01*
X129657816Y-93257000D01*
X129550655Y-93257000D01*
X129550655Y-93131062D01*
X129634644Y-93131062D01*
X129670705Y-93128131D01*
X129701249Y-93119342D01*
X129723603Y-93106735D01*
X129741668Y-93089576D01*
X129764514Y-93043192D01*
X129771206Y-92986165D01*
X129771206Y-92305735D01*
G37*
G36*
X129410337Y-92192345D02*
G01*
X129086929Y-93257000D01*
X128958793Y-93257000D01*
X128692080Y-92398150D01*
X128423260Y-93257000D01*
X128293109Y-93257000D01*
X127969701Y-92192345D01*
X128125131Y-92192345D01*
X128366565Y-93044966D01*
X128631172Y-92192345D01*
X128750882Y-92192345D01*
X129015488Y-93044966D01*
X129254907Y-92192345D01*
X129410337Y-92192345D01*
G37*
G36*
X127469059Y-92180621D02*
G01*
X127522947Y-92189414D01*
X127570412Y-92203122D01*
X127614483Y-92222073D01*
X127654062Y-92245508D01*
X127690447Y-92273894D01*
X127705370Y-92287874D01*
X127757129Y-92355696D01*
X127793438Y-92442707D01*
X127813536Y-92553756D01*
X127816653Y-92627036D01*
X127816653Y-92811867D01*
X127813722Y-92884945D01*
X127804929Y-92951496D01*
X127791693Y-93006855D01*
X127773516Y-93056710D01*
X127752102Y-93098257D01*
X127726388Y-93135014D01*
X127705370Y-93158356D01*
X127670484Y-93189056D01*
X127632252Y-93214812D01*
X127546493Y-93251274D01*
X127444999Y-93268448D01*
X127407149Y-93269639D01*
X127343903Y-93266709D01*
X127285767Y-93257920D01*
X127236303Y-93244497D01*
X127191250Y-93226017D01*
X127120469Y-93179330D01*
X127089619Y-93148636D01*
X127064178Y-93114870D01*
X127030244Y-93040512D01*
X127016732Y-92953475D01*
X127016513Y-92939911D01*
X127016513Y-92929470D01*
X127155182Y-92929470D01*
X127155182Y-92935790D01*
X127158113Y-92975195D01*
X127166906Y-93010751D01*
X127180315Y-93040313D01*
X127198775Y-93066558D01*
X127219204Y-93086915D01*
X127278041Y-93121765D01*
X127355434Y-93139549D01*
X127396616Y-93141503D01*
X127446769Y-93138571D01*
X127492312Y-93129768D01*
X127530262Y-93116425D01*
X127564292Y-93098066D01*
X127600315Y-93069055D01*
X127638008Y-93015469D01*
X127663420Y-92936749D01*
X127673827Y-92823933D01*
X127673862Y-92816080D01*
X127673862Y-92753065D01*
X127008178Y-92753065D01*
X127008178Y-92627036D01*
X127008951Y-92608168D01*
X127150969Y-92608168D01*
X127150969Y-92645995D01*
X127673862Y-92645995D01*
X127673862Y-92622823D01*
X127670931Y-92556504D01*
X127662139Y-92498694D01*
X127649531Y-92454809D01*
X127632370Y-92417545D01*
X127602421Y-92378183D01*
X127574028Y-92354341D01*
X127542271Y-92335416D01*
X127468901Y-92312358D01*
X127411362Y-92307841D01*
X127362803Y-92310771D01*
X127318827Y-92319558D01*
X127282273Y-92332873D01*
X127249613Y-92351177D01*
X127220212Y-92375069D01*
X127183568Y-92426960D01*
X127159574Y-92503442D01*
X127150969Y-92608168D01*
X127008951Y-92608168D01*
X127011109Y-92555533D01*
X127019902Y-92490342D01*
X127033162Y-92435962D01*
X127051378Y-92386917D01*
X127072905Y-92345868D01*
X127098768Y-92309483D01*
X127118362Y-92287874D01*
X127153259Y-92257164D01*
X127191440Y-92231460D01*
X127276745Y-92195331D01*
X127377317Y-92178684D01*
X127411362Y-92177690D01*
X127469059Y-92180621D01*
G37*
G36*
X126711057Y-92192345D02*
G01*
X126711057Y-93257000D01*
X126568266Y-93257000D01*
X126568266Y-92192345D01*
X126711057Y-92192345D01*
G37*
G36*
X126715270Y-91829095D02*
G01*
X126715270Y-92018047D01*
X126564145Y-92018047D01*
X126564145Y-91829095D01*
X126715270Y-91829095D01*
G37*
G36*
X125961071Y-92174301D02*
G01*
X126009496Y-92183094D01*
X126052484Y-92196889D01*
X126092497Y-92215982D01*
X126162422Y-92268909D01*
X126169754Y-92276334D01*
X126217551Y-92343089D01*
X126250984Y-92431152D01*
X126268678Y-92546359D01*
X126270595Y-92606062D01*
X126270595Y-92753065D01*
X126267665Y-92826892D01*
X126258872Y-92893693D01*
X126245737Y-92948511D01*
X126227723Y-92997486D01*
X126206680Y-93037646D01*
X126181450Y-93072796D01*
X126169754Y-93085907D01*
X126136040Y-93117159D01*
X126099408Y-93142969D01*
X126019575Y-93177655D01*
X125927586Y-93191687D01*
X125911467Y-93191970D01*
X125858866Y-93189037D01*
X125810458Y-93180232D01*
X125738268Y-93152036D01*
X125703734Y-93129729D01*
X125673073Y-93102889D01*
X125623779Y-93036540D01*
X125623779Y-93185650D01*
X125626710Y-93242883D01*
X125635504Y-93293559D01*
X125648400Y-93333486D01*
X125666027Y-93368123D01*
X125686604Y-93395520D01*
X125711250Y-93418369D01*
X125771455Y-93449990D01*
X125850866Y-93464304D01*
X125873640Y-93464911D01*
X125923711Y-93461977D01*
X125968457Y-93453161D01*
X126004470Y-93440050D01*
X126036111Y-93422062D01*
X126036397Y-93421863D01*
X126063158Y-93399724D01*
X126084002Y-93374558D01*
X126098221Y-93348082D01*
X126107174Y-93318933D01*
X126108846Y-93309573D01*
X126251636Y-93309573D01*
X126245128Y-93353320D01*
X126233008Y-93393772D01*
X126216183Y-93429350D01*
X126194234Y-93461924D01*
X126141452Y-93513271D01*
X126065775Y-93555897D01*
X125971328Y-93581562D01*
X125873640Y-93588834D01*
X125815179Y-93585903D01*
X125761087Y-93577110D01*
X125714376Y-93563556D01*
X125671495Y-93544857D01*
X125633842Y-93522005D01*
X125599732Y-93494389D01*
X125582838Y-93477551D01*
X125554155Y-93442567D01*
X125530095Y-93403945D01*
X125495690Y-93315222D01*
X125479749Y-93207637D01*
X125478882Y-93173010D01*
X125478882Y-92627036D01*
X125623779Y-92627036D01*
X125623779Y-92742532D01*
X125626709Y-92799768D01*
X125635496Y-92852228D01*
X125648913Y-92896721D01*
X125667383Y-92937104D01*
X125691007Y-92973525D01*
X125715243Y-93000506D01*
X125743105Y-93022575D01*
X125808269Y-93051590D01*
X125890493Y-93061727D01*
X125933545Y-93058796D01*
X125972249Y-93050004D01*
X126004049Y-93036720D01*
X126032162Y-93018463D01*
X126076305Y-92968666D01*
X126107296Y-92897217D01*
X126123942Y-92797076D01*
X126125698Y-92744639D01*
X126125698Y-92616595D01*
X126122768Y-92550836D01*
X126113976Y-92492710D01*
X126101159Y-92447219D01*
X126083661Y-92407823D01*
X126063592Y-92377168D01*
X126039619Y-92351596D01*
X125982810Y-92316809D01*
X125910257Y-92300543D01*
X125882066Y-92299415D01*
X125837737Y-92302346D01*
X125797539Y-92311139D01*
X125763953Y-92324530D01*
X125733919Y-92342963D01*
X125688901Y-92388716D01*
X125650052Y-92461776D01*
X125628079Y-92554371D01*
X125623779Y-92627036D01*
X125478882Y-92627036D01*
X125478882Y-92183919D01*
X125623779Y-92183919D01*
X125623779Y-92333029D01*
X125649235Y-92293438D01*
X125678301Y-92259401D01*
X125709321Y-92232158D01*
X125743609Y-92209946D01*
X125821134Y-92180804D01*
X125909360Y-92171371D01*
X125961071Y-92174301D01*
G37*
G36*
X125164267Y-91808029D02*
G01*
X125164267Y-93257000D01*
X125021476Y-93257000D01*
X125021476Y-92578768D01*
X125018547Y-92527420D01*
X125009766Y-92481205D01*
X124996579Y-92443339D01*
X124978488Y-92409788D01*
X124953241Y-92378183D01*
X124925692Y-92354011D01*
X124894891Y-92334909D01*
X124824395Y-92312061D01*
X124771524Y-92307841D01*
X124726167Y-92310773D01*
X124685066Y-92319571D01*
X124650833Y-92332939D01*
X124620244Y-92351335D01*
X124590998Y-92377176D01*
X124552596Y-92435117D01*
X124530624Y-92511919D01*
X124525877Y-92578768D01*
X124525877Y-93257000D01*
X124383087Y-93257000D01*
X124383087Y-92557793D01*
X124386018Y-92496370D01*
X124394810Y-92440097D01*
X124408194Y-92392532D01*
X124426613Y-92349381D01*
X124448785Y-92312456D01*
X124475504Y-92279509D01*
X124476510Y-92278441D01*
X124507414Y-92250071D01*
X124541848Y-92226500D01*
X124620848Y-92193877D01*
X124717129Y-92180120D01*
X124735896Y-92179797D01*
X124788167Y-92182728D01*
X124836651Y-92191525D01*
X124878826Y-92205166D01*
X124917639Y-92224010D01*
X124983539Y-92275613D01*
X125021476Y-92322587D01*
X125021476Y-91808029D01*
X125164267Y-91808029D01*
G37*
G36*
X123843432Y-92305735D02*
G01*
X123604013Y-92305735D01*
X123604013Y-92192345D01*
X123843432Y-92192345D01*
X123843432Y-91881576D01*
X123988329Y-91948804D01*
X123988329Y-92192345D01*
X124154201Y-92192345D01*
X124154201Y-92305735D01*
X123988329Y-92305735D01*
X123988329Y-92992484D01*
X123985400Y-93041441D01*
X123976619Y-93085825D01*
X123963299Y-93122796D01*
X123944990Y-93155849D01*
X123920094Y-93186658D01*
X123893296Y-93210056D01*
X123862910Y-93228740D01*
X123791154Y-93252000D01*
X123730042Y-93257000D01*
X123622881Y-93257000D01*
X123622881Y-93131062D01*
X123706870Y-93131062D01*
X123742931Y-93128131D01*
X123773475Y-93119342D01*
X123795830Y-93106735D01*
X123813894Y-93089576D01*
X123836740Y-93043192D01*
X123843432Y-92986165D01*
X123843432Y-92305735D01*
G37*
G36*
X122889603Y-91808029D02*
G01*
X122889603Y-93257000D01*
X122013901Y-93257000D01*
X122013901Y-93118422D01*
X122736371Y-93118422D01*
X122736371Y-91808029D01*
X122889603Y-91808029D01*
G37*
G36*
X121543260Y-92180621D02*
G01*
X121600515Y-92189414D01*
X121648847Y-92202785D01*
X121692666Y-92221183D01*
X121751584Y-92259573D01*
X121781801Y-92288427D01*
X121806510Y-92320324D01*
X121838676Y-92390626D01*
X121850291Y-92473310D01*
X121850319Y-92477926D01*
X121850319Y-92488459D01*
X121711742Y-92488459D01*
X121711742Y-92482139D01*
X121708812Y-92446459D01*
X121700026Y-92414263D01*
X121686518Y-92387297D01*
X121667901Y-92363349D01*
X121649734Y-92346676D01*
X121590145Y-92314230D01*
X121510483Y-92298517D01*
X121478642Y-92297400D01*
X121429668Y-92300331D01*
X121385931Y-92309124D01*
X121350680Y-92322223D01*
X121319778Y-92340179D01*
X121300131Y-92356201D01*
X121261985Y-92407687D01*
X121241046Y-92476297D01*
X121237117Y-92530499D01*
X121237117Y-92652224D01*
X121524804Y-92652224D01*
X121586717Y-92655153D01*
X121643090Y-92663937D01*
X121690167Y-92677219D01*
X121732539Y-92695467D01*
X121788403Y-92733099D01*
X121816685Y-92761475D01*
X121839882Y-92793208D01*
X121870611Y-92865230D01*
X121881807Y-92952681D01*
X121881826Y-92956764D01*
X121878895Y-93009063D01*
X121870098Y-93056690D01*
X121856738Y-93096587D01*
X121838354Y-93132491D01*
X121789411Y-93189863D01*
X121721081Y-93233448D01*
X121634029Y-93260520D01*
X121529017Y-93269639D01*
X121468253Y-93266711D01*
X121413545Y-93257937D01*
X121354720Y-93239231D01*
X121318189Y-93220449D01*
X121284975Y-93196720D01*
X121235010Y-93143610D01*
X121235010Y-93257000D01*
X121094326Y-93257000D01*
X121094326Y-92895856D01*
X121237117Y-92895856D01*
X121240048Y-92948558D01*
X121248840Y-92995197D01*
X121261768Y-93031993D01*
X121279444Y-93063877D01*
X121301139Y-93090121D01*
X121354260Y-93126562D01*
X121429363Y-93148533D01*
X121505937Y-93154143D01*
X121559004Y-93151212D01*
X121605230Y-93142419D01*
X121640483Y-93129725D01*
X121670358Y-93112426D01*
X121693159Y-93092372D01*
X121711377Y-93068396D01*
X121733949Y-93009227D01*
X121739036Y-92954657D01*
X121736105Y-92913042D01*
X121727312Y-92876350D01*
X121714284Y-92847356D01*
X121696443Y-92822401D01*
X121648342Y-92785628D01*
X121579132Y-92763354D01*
X121503830Y-92757279D01*
X121237117Y-92757279D01*
X121237117Y-92895856D01*
X121094326Y-92895856D01*
X121094326Y-92532514D01*
X121097257Y-92475252D01*
X121106050Y-92422919D01*
X121119421Y-92378850D01*
X121137819Y-92339013D01*
X121160041Y-92304975D01*
X121186831Y-92274787D01*
X121194069Y-92267999D01*
X121263123Y-92221232D01*
X121350700Y-92190838D01*
X121461844Y-92177926D01*
X121480749Y-92177690D01*
X121543260Y-92180621D01*
G37*
G36*
X120779619Y-93257000D02*
G01*
X120636829Y-93257000D01*
X120636829Y-93116316D01*
X120611976Y-93153640D01*
X120583351Y-93185766D01*
X120552316Y-93211722D01*
X120517804Y-93232885D01*
X120438290Y-93260849D01*
X120349141Y-93269639D01*
X120298322Y-93266708D01*
X120250646Y-93257915D01*
X120208141Y-93244083D01*
X120168490Y-93224928D01*
X120098706Y-93171599D01*
X120090855Y-93163577D01*
X120042974Y-93096199D01*
X120009523Y-93007565D01*
X119991886Y-92891904D01*
X119990013Y-92832841D01*
X119990013Y-92622823D01*
X120132803Y-92622823D01*
X120132803Y-92824415D01*
X120135734Y-92890964D01*
X120144526Y-92949684D01*
X120157312Y-92995453D01*
X120174760Y-93034993D01*
X120194705Y-93065582D01*
X120218514Y-93091005D01*
X120274723Y-93125205D01*
X120346320Y-93140663D01*
X120370116Y-93141503D01*
X120415335Y-93138571D01*
X120456469Y-93129771D01*
X120491004Y-93116341D01*
X120522023Y-93097843D01*
X120568594Y-93052293D01*
X120609846Y-92978881D01*
X120632524Y-92889711D01*
X120636829Y-92822308D01*
X120636829Y-92635463D01*
X120633898Y-92574900D01*
X120625105Y-92519716D01*
X120611804Y-92473608D01*
X120593520Y-92432090D01*
X120571708Y-92397143D01*
X120548003Y-92369611D01*
X120520734Y-92347139D01*
X120457434Y-92317909D01*
X120378542Y-92307841D01*
X120333425Y-92310772D01*
X120292881Y-92319564D01*
X120259657Y-92332808D01*
X120230295Y-92351000D01*
X120184474Y-92400193D01*
X120152428Y-92469963D01*
X120134946Y-92566755D01*
X120132803Y-92622823D01*
X119990013Y-92622823D01*
X119990013Y-92614488D01*
X119992943Y-92542049D01*
X120001733Y-92476363D01*
X120014904Y-92422185D01*
X120032975Y-92373659D01*
X120054166Y-92333617D01*
X120079589Y-92298459D01*
X120092961Y-92283661D01*
X120127015Y-92252814D01*
X120164107Y-92227256D01*
X120245634Y-92192516D01*
X120340350Y-92178064D01*
X120359583Y-92177690D01*
X120407010Y-92180625D01*
X120451323Y-92189441D01*
X120522340Y-92219639D01*
X120556291Y-92243347D01*
X120586884Y-92271891D01*
X120636829Y-92341455D01*
X120636829Y-91808029D01*
X120779619Y-91808029D01*
X120779619Y-93257000D01*
G37*
G36*
X119837972Y-92192345D02*
G01*
X119514564Y-93257000D01*
X119386428Y-93257000D01*
X119119714Y-92398150D01*
X118850895Y-93257000D01*
X118720744Y-93257000D01*
X118397336Y-92192345D01*
X118552766Y-92192345D01*
X118794200Y-93044966D01*
X119058806Y-92192345D01*
X119178516Y-92192345D01*
X119443122Y-93044966D01*
X119682542Y-92192345D01*
X119837972Y-92192345D01*
G37*
G36*
X117930908Y-92180621D02*
G01*
X117988163Y-92189414D01*
X118036496Y-92202785D01*
X118080314Y-92221183D01*
X118139232Y-92259573D01*
X118169449Y-92288427D01*
X118194158Y-92320324D01*
X118226325Y-92390626D01*
X118237939Y-92473310D01*
X118237967Y-92477926D01*
X118237967Y-92488459D01*
X118099390Y-92488459D01*
X118099390Y-92482139D01*
X118096460Y-92446459D01*
X118087674Y-92414263D01*
X118074166Y-92387297D01*
X118055549Y-92363349D01*
X118037383Y-92346676D01*
X117977793Y-92314230D01*
X117898131Y-92298517D01*
X117866291Y-92297400D01*
X117817316Y-92300331D01*
X117773580Y-92309124D01*
X117738328Y-92322223D01*
X117707426Y-92340179D01*
X117687780Y-92356201D01*
X117649634Y-92407687D01*
X117628695Y-92476297D01*
X117624765Y-92530499D01*
X117624765Y-92652224D01*
X117912453Y-92652224D01*
X117974365Y-92655153D01*
X118030738Y-92663937D01*
X118077815Y-92677219D01*
X118120188Y-92695467D01*
X118176052Y-92733099D01*
X118204334Y-92761475D01*
X118227531Y-92793208D01*
X118258260Y-92865230D01*
X118269455Y-92952681D01*
X118269475Y-92956764D01*
X118266543Y-93009063D01*
X118257747Y-93056690D01*
X118244386Y-93096587D01*
X118226003Y-93132491D01*
X118177059Y-93189863D01*
X118108729Y-93233448D01*
X118021677Y-93260520D01*
X117916666Y-93269639D01*
X117855901Y-93266711D01*
X117801193Y-93257937D01*
X117742368Y-93239231D01*
X117705837Y-93220449D01*
X117672623Y-93196720D01*
X117622658Y-93143610D01*
X117622658Y-93257000D01*
X117481975Y-93257000D01*
X117481975Y-92895856D01*
X117624765Y-92895856D01*
X117627696Y-92948558D01*
X117636489Y-92995197D01*
X117649416Y-93031993D01*
X117667093Y-93063877D01*
X117688787Y-93090121D01*
X117741908Y-93126562D01*
X117817011Y-93148533D01*
X117893585Y-93154143D01*
X117946652Y-93151212D01*
X117992878Y-93142419D01*
X118028131Y-93129725D01*
X118058006Y-93112426D01*
X118080807Y-93092372D01*
X118099025Y-93068396D01*
X118121597Y-93009227D01*
X118126684Y-92954657D01*
X118123753Y-92913042D01*
X118114960Y-92876350D01*
X118101932Y-92847356D01*
X118084092Y-92822401D01*
X118035991Y-92785628D01*
X117966780Y-92763354D01*
X117891478Y-92757279D01*
X117624765Y-92757279D01*
X117624765Y-92895856D01*
X117481975Y-92895856D01*
X117481975Y-92532514D01*
X117484905Y-92475252D01*
X117493698Y-92422919D01*
X117507069Y-92378850D01*
X117525468Y-92339013D01*
X117547689Y-92304975D01*
X117574480Y-92274787D01*
X117581717Y-92267999D01*
X117650772Y-92221232D01*
X117738348Y-92190838D01*
X117849492Y-92177926D01*
X117868397Y-92177690D01*
X117930908Y-92180621D01*
G37*
G36*
X117167268Y-92192345D02*
G01*
X117167268Y-93257000D01*
X117024477Y-93257000D01*
X117024477Y-92582981D01*
X117021548Y-92534524D01*
X117012767Y-92490036D01*
X116999245Y-92451963D01*
X116980607Y-92417355D01*
X116956242Y-92385510D01*
X116928790Y-92359503D01*
X116898377Y-92338961D01*
X116830848Y-92314681D01*
X116778738Y-92309948D01*
X116731043Y-92312885D01*
X116686287Y-92321725D01*
X116669562Y-92326801D01*
X116669562Y-92183919D01*
X116747231Y-92177690D01*
X116795589Y-92180623D01*
X116841216Y-92189429D01*
X116909988Y-92216525D01*
X116943651Y-92237895D01*
X116973927Y-92264112D01*
X117024481Y-92331382D01*
X117026584Y-92335135D01*
X117026584Y-92192345D01*
X117167268Y-92192345D01*
G37*
G36*
X116146937Y-92180621D02*
G01*
X116200826Y-92189414D01*
X116248290Y-92203122D01*
X116292362Y-92222073D01*
X116331940Y-92245508D01*
X116368326Y-92273894D01*
X116383248Y-92287874D01*
X116435007Y-92355696D01*
X116471316Y-92442707D01*
X116491415Y-92553756D01*
X116494531Y-92627036D01*
X116494531Y-92811867D01*
X116491600Y-92884945D01*
X116482808Y-92951496D01*
X116469572Y-93006855D01*
X116451394Y-93056710D01*
X116429981Y-93098257D01*
X116404267Y-93135014D01*
X116383248Y-93158356D01*
X116348363Y-93189056D01*
X116310130Y-93214812D01*
X116224372Y-93251274D01*
X116122878Y-93268448D01*
X116085028Y-93269639D01*
X116021781Y-93266709D01*
X115963645Y-93257920D01*
X115914181Y-93244497D01*
X115869129Y-93226017D01*
X115798348Y-93179330D01*
X115767497Y-93148636D01*
X115742057Y-93114870D01*
X115708123Y-93040512D01*
X115694611Y-92953475D01*
X115694392Y-92939911D01*
X115694392Y-92929470D01*
X115833061Y-92929470D01*
X115833061Y-92935790D01*
X115835991Y-92975195D01*
X115844784Y-93010751D01*
X115858193Y-93040313D01*
X115876654Y-93066558D01*
X115897083Y-93086915D01*
X115955919Y-93121765D01*
X116033312Y-93139549D01*
X116074495Y-93141503D01*
X116124647Y-93138571D01*
X116170191Y-93129768D01*
X116208140Y-93116425D01*
X116242170Y-93098066D01*
X116278193Y-93069055D01*
X116315886Y-93015469D01*
X116341298Y-92936749D01*
X116351705Y-92823933D01*
X116351741Y-92816080D01*
X116351741Y-92753065D01*
X115686057Y-92753065D01*
X115686057Y-92627036D01*
X115686830Y-92608168D01*
X115828847Y-92608168D01*
X115828847Y-92645995D01*
X116351741Y-92645995D01*
X116351741Y-92622823D01*
X116348810Y-92556504D01*
X116340017Y-92498694D01*
X116327409Y-92454809D01*
X116310249Y-92417545D01*
X116280300Y-92378183D01*
X116251907Y-92354341D01*
X116220149Y-92335416D01*
X116146780Y-92312358D01*
X116089241Y-92307841D01*
X116040682Y-92310771D01*
X115996706Y-92319558D01*
X115960151Y-92332873D01*
X115927491Y-92351177D01*
X115898090Y-92375069D01*
X115861446Y-92426960D01*
X115837453Y-92503442D01*
X115828847Y-92608168D01*
X115686830Y-92608168D01*
X115688988Y-92555533D01*
X115697781Y-92490342D01*
X115711040Y-92435962D01*
X115729257Y-92386917D01*
X115750783Y-92345868D01*
X115776646Y-92309483D01*
X115796241Y-92287874D01*
X115831137Y-92257164D01*
X115869318Y-92231460D01*
X115954624Y-92195331D01*
X116055196Y-92178684D01*
X116089241Y-92177690D01*
X116146937Y-92180621D01*
G37*
G36*
X133734168Y-95653168D02*
G01*
X133734168Y-95777000D01*
X132999150Y-95777000D01*
X132999150Y-95640529D01*
X133545124Y-95640529D01*
X133125179Y-95035753D01*
X133083010Y-94973179D01*
X133049416Y-94912339D01*
X133030657Y-94869882D01*
X133014541Y-94820995D01*
X133004130Y-94770576D01*
X132999150Y-94701812D01*
X132999150Y-94666183D01*
X133002082Y-94615981D01*
X133010886Y-94568245D01*
X133024878Y-94524714D01*
X133044304Y-94483459D01*
X133068293Y-94446068D01*
X133096764Y-94412684D01*
X133166196Y-94358506D01*
X133173448Y-94354315D01*
X133257427Y-94320473D01*
X133353934Y-94307216D01*
X133366613Y-94307054D01*
X133422216Y-94309985D01*
X133473811Y-94318778D01*
X133518675Y-94332396D01*
X133559991Y-94351200D01*
X133596616Y-94374351D01*
X133629908Y-94402364D01*
X133634426Y-94406797D01*
X133663638Y-94440154D01*
X133687801Y-94476755D01*
X133720725Y-94558713D01*
X133733970Y-94655897D01*
X133734168Y-94670396D01*
X133734168Y-94716558D01*
X133582952Y-94716558D01*
X133582952Y-94678731D01*
X133580020Y-94629073D01*
X133571219Y-94585154D01*
X133558271Y-94550538D01*
X133540555Y-94520603D01*
X133526257Y-94503426D01*
X133501570Y-94481628D01*
X133473451Y-94464740D01*
X133407231Y-94445737D01*
X133370827Y-94443525D01*
X133329496Y-94446455D01*
X133291994Y-94455241D01*
X133260501Y-94468690D01*
X133232331Y-94487212D01*
X133213382Y-94504433D01*
X133192133Y-94530701D01*
X133175629Y-94560507D01*
X133156789Y-94631327D01*
X133154580Y-94670396D01*
X133154580Y-94701812D01*
X133166308Y-94788035D01*
X133203659Y-94883311D01*
X133246995Y-94955977D01*
X133734168Y-95653168D01*
G37*
G36*
X132417771Y-94309985D02*
G01*
X132471107Y-94318777D01*
X132516264Y-94332184D01*
X132557229Y-94350640D01*
X132592423Y-94372967D01*
X132623799Y-94399894D01*
X132674761Y-94466950D01*
X132711584Y-94555106D01*
X132733179Y-94669831D01*
X132737566Y-94762720D01*
X132737566Y-95333974D01*
X132734635Y-95412125D01*
X132725841Y-95483076D01*
X132712669Y-95541649D01*
X132694595Y-95594201D01*
X132673482Y-95637503D01*
X132648162Y-95675642D01*
X132620188Y-95707115D01*
X132588411Y-95733920D01*
X132514482Y-95773145D01*
X132423099Y-95794481D01*
X132359570Y-95798065D01*
X132301569Y-95795135D01*
X132248366Y-95786342D01*
X132203234Y-95772919D01*
X132162243Y-95754436D01*
X132126947Y-95732049D01*
X132095432Y-95705041D01*
X132044060Y-95637703D01*
X132006691Y-95549106D01*
X131984411Y-95433778D01*
X131979467Y-95333974D01*
X131979467Y-94800547D01*
X132132790Y-94800547D01*
X132132790Y-95304573D01*
X132135721Y-95388790D01*
X132144514Y-95460799D01*
X132156780Y-95513023D01*
X132173392Y-95556208D01*
X132185272Y-95577514D01*
X132205001Y-95602865D01*
X132228698Y-95623546D01*
X132286614Y-95650511D01*
X132359570Y-95659488D01*
X132403085Y-95656558D01*
X132441570Y-95647774D01*
X132472153Y-95634739D01*
X132498602Y-95616891D01*
X132532860Y-95577514D01*
X132561901Y-95509163D01*
X132580425Y-95401484D01*
X132584334Y-95304573D01*
X132584334Y-94800547D01*
X132581406Y-94715708D01*
X132572630Y-94643265D01*
X132560391Y-94590773D01*
X132543830Y-94547463D01*
X132532860Y-94527514D01*
X132513474Y-94502209D01*
X132490093Y-94481568D01*
X132432759Y-94454671D01*
X132359570Y-94445632D01*
X132315981Y-94448563D01*
X132277336Y-94457355D01*
X132246523Y-94470424D01*
X132219802Y-94488330D01*
X132185272Y-94527514D01*
X132155817Y-94595307D01*
X132136961Y-94701489D01*
X132132790Y-94800547D01*
X131979467Y-94800547D01*
X131979467Y-94762720D01*
X131982397Y-94686239D01*
X131991189Y-94616777D01*
X132004372Y-94559357D01*
X132022462Y-94507817D01*
X132043635Y-94465259D01*
X132069031Y-94427763D01*
X132097175Y-94396731D01*
X132129157Y-94370300D01*
X132203843Y-94331531D01*
X132296496Y-94310485D01*
X132359570Y-94307054D01*
X132417771Y-94309985D01*
G37*
G36*
X131717699Y-95653168D02*
G01*
X131717699Y-95777000D01*
X130982681Y-95777000D01*
X130982681Y-95640529D01*
X131528655Y-95640529D01*
X131108710Y-95035753D01*
X131066541Y-94973179D01*
X131032947Y-94912339D01*
X131014188Y-94869882D01*
X130998072Y-94820995D01*
X130987661Y-94770576D01*
X130982681Y-94701812D01*
X130982681Y-94666183D01*
X130985614Y-94615981D01*
X130994417Y-94568245D01*
X131008410Y-94524714D01*
X131027836Y-94483459D01*
X131051824Y-94446068D01*
X131080295Y-94412684D01*
X131149727Y-94358506D01*
X131156979Y-94354315D01*
X131240958Y-94320473D01*
X131337465Y-94307216D01*
X131350144Y-94307054D01*
X131405747Y-94309985D01*
X131457342Y-94318778D01*
X131502206Y-94332396D01*
X131543522Y-94351200D01*
X131580147Y-94374351D01*
X131613439Y-94402364D01*
X131617957Y-94406797D01*
X131647169Y-94440154D01*
X131671332Y-94476755D01*
X131704256Y-94558713D01*
X131717501Y-94655897D01*
X131717699Y-94670396D01*
X131717699Y-94716558D01*
X131566483Y-94716558D01*
X131566483Y-94678731D01*
X131563551Y-94629073D01*
X131554750Y-94585154D01*
X131541802Y-94550538D01*
X131524086Y-94520603D01*
X131509788Y-94503426D01*
X131485101Y-94481628D01*
X131456982Y-94464740D01*
X131390762Y-94445737D01*
X131354358Y-94443525D01*
X131313027Y-94446455D01*
X131275525Y-94455241D01*
X131244032Y-94468690D01*
X131215862Y-94487212D01*
X131196913Y-94504433D01*
X131175664Y-94530701D01*
X131159160Y-94560507D01*
X131140320Y-94631327D01*
X131138111Y-94670396D01*
X131138111Y-94701812D01*
X131149839Y-94788035D01*
X131187190Y-94883311D01*
X131230527Y-94955977D01*
X131717699Y-95653168D01*
G37*
G36*
X130623461Y-95707757D02*
G01*
X130554068Y-95755913D01*
X130468693Y-95786182D01*
X130363100Y-95797996D01*
X130353634Y-95798065D01*
X130297484Y-95795134D01*
X130245564Y-95786338D01*
X130200758Y-95772776D01*
X130159656Y-95754062D01*
X130123497Y-95731115D01*
X130090780Y-95703367D01*
X130080601Y-95693010D01*
X130030165Y-95622227D01*
X129997319Y-95535132D01*
X129982538Y-95427606D01*
X129981957Y-95399095D01*
X129981957Y-95241558D01*
X129984888Y-95173344D01*
X129993681Y-95111146D01*
X130006957Y-95059198D01*
X130025201Y-95012333D01*
X130070159Y-94941231D01*
X130098200Y-94912418D01*
X130130023Y-94888218D01*
X130204547Y-94853803D01*
X130297550Y-94837388D01*
X130332659Y-94836268D01*
X130377891Y-94839202D01*
X130420778Y-94848019D01*
X130460704Y-94862463D01*
X130499969Y-94883193D01*
X130533902Y-94907948D01*
X130557332Y-94930790D01*
X130557332Y-94468804D01*
X130005038Y-94468804D01*
X130005038Y-94328029D01*
X130698016Y-94328029D01*
X130698016Y-95121849D01*
X130563652Y-95121849D01*
X130548741Y-95086385D01*
X130529144Y-95055414D01*
X130485891Y-95013680D01*
X130424398Y-94984213D01*
X130353634Y-94974845D01*
X130309957Y-94977777D01*
X130271245Y-94986575D01*
X130240404Y-94999644D01*
X130213653Y-95017554D01*
X130188770Y-95043080D01*
X130156446Y-95103263D01*
X130138079Y-95189392D01*
X130135189Y-95249984D01*
X130135189Y-95386455D01*
X130138120Y-95445756D01*
X130146911Y-95497808D01*
X130159664Y-95538033D01*
X130177057Y-95572516D01*
X130197076Y-95599079D01*
X130220993Y-95620815D01*
X130278667Y-95649265D01*
X130355740Y-95659488D01*
X130401763Y-95656557D01*
X130442617Y-95647765D01*
X130475196Y-95634717D01*
X130503500Y-95616845D01*
X130517398Y-95604808D01*
X130537867Y-95581069D01*
X130553767Y-95553605D01*
X130571996Y-95486534D01*
X130574093Y-95449470D01*
X130574093Y-95434724D01*
X130721097Y-95434724D01*
X130721097Y-95462018D01*
X130718166Y-95513937D01*
X130709370Y-95561954D01*
X130695771Y-95603477D01*
X130676999Y-95641550D01*
X130625733Y-95705636D01*
X130623461Y-95707757D01*
G37*
G36*
X129720281Y-94979058D02*
G01*
X129720281Y-95117635D01*
X129142800Y-95117635D01*
X129142800Y-94979058D01*
X129720281Y-94979058D01*
G37*
G36*
X128664236Y-94504433D02*
G01*
X128664236Y-95777000D01*
X128513020Y-95777000D01*
X128513020Y-94328029D01*
X128666343Y-94328029D01*
X128914097Y-94519179D01*
X128914097Y-94691371D01*
X128664236Y-94504433D01*
G37*
G36*
X127870457Y-94309985D02*
G01*
X127923794Y-94318777D01*
X127968950Y-94332184D01*
X128009916Y-94350640D01*
X128045110Y-94372967D01*
X128076486Y-94399894D01*
X128127448Y-94466950D01*
X128164271Y-94555106D01*
X128185866Y-94669831D01*
X128190253Y-94762720D01*
X128190253Y-95333974D01*
X128187322Y-95412125D01*
X128178528Y-95483076D01*
X128165356Y-95541649D01*
X128147281Y-95594201D01*
X128126168Y-95637503D01*
X128100849Y-95675642D01*
X128072875Y-95707115D01*
X128041098Y-95733920D01*
X127967169Y-95773145D01*
X127875786Y-95794481D01*
X127812256Y-95798065D01*
X127754256Y-95795135D01*
X127701053Y-95786342D01*
X127655920Y-95772919D01*
X127614930Y-95754436D01*
X127579633Y-95732049D01*
X127548119Y-95705041D01*
X127496746Y-95637703D01*
X127459377Y-95549106D01*
X127437098Y-95433778D01*
X127432153Y-95333974D01*
X127432153Y-94800547D01*
X127585477Y-94800547D01*
X127585477Y-95304573D01*
X127588408Y-95388790D01*
X127597200Y-95460799D01*
X127609467Y-95513023D01*
X127626078Y-95556208D01*
X127637959Y-95577514D01*
X127657688Y-95602865D01*
X127681385Y-95623546D01*
X127739301Y-95650511D01*
X127812256Y-95659488D01*
X127855772Y-95656558D01*
X127894257Y-95647774D01*
X127924839Y-95634739D01*
X127951289Y-95616891D01*
X127985547Y-95577514D01*
X128014588Y-95509163D01*
X128033112Y-95401484D01*
X128037021Y-95304573D01*
X128037021Y-94800547D01*
X128034092Y-94715708D01*
X128025317Y-94643265D01*
X128013077Y-94590773D01*
X127996517Y-94547463D01*
X127985547Y-94527514D01*
X127966161Y-94502209D01*
X127942779Y-94481568D01*
X127885445Y-94454671D01*
X127812256Y-94445632D01*
X127768667Y-94448563D01*
X127730023Y-94457355D01*
X127699210Y-94470424D01*
X127672489Y-94488330D01*
X127637959Y-94527514D01*
X127608503Y-94595307D01*
X127589647Y-94701489D01*
X127585477Y-94800547D01*
X127432153Y-94800547D01*
X127432153Y-94762720D01*
X127435084Y-94686239D01*
X127443876Y-94616777D01*
X127457059Y-94559357D01*
X127475149Y-94507817D01*
X127496322Y-94465259D01*
X127521718Y-94427763D01*
X127549862Y-94396731D01*
X127581843Y-94370300D01*
X127656530Y-94331531D01*
X127749183Y-94310485D01*
X127812256Y-94307054D01*
X127870457Y-94309985D01*
G37*
G36*
X127170386Y-94979058D02*
G01*
X127170386Y-95117635D01*
X126592904Y-95117635D01*
X126592904Y-94979058D01*
X127170386Y-94979058D01*
G37*
G36*
X126345334Y-95653168D02*
G01*
X126345334Y-95777000D01*
X125610315Y-95777000D01*
X125610315Y-95640529D01*
X126156290Y-95640529D01*
X125736345Y-95035753D01*
X125694176Y-94973179D01*
X125660581Y-94912339D01*
X125641823Y-94869882D01*
X125625706Y-94820995D01*
X125615295Y-94770576D01*
X125610315Y-94701812D01*
X125610315Y-94666183D01*
X125613248Y-94615981D01*
X125622051Y-94568245D01*
X125636044Y-94524714D01*
X125655470Y-94483459D01*
X125679458Y-94446068D01*
X125707930Y-94412684D01*
X125777361Y-94358506D01*
X125784613Y-94354315D01*
X125868592Y-94320473D01*
X125965099Y-94307216D01*
X125977779Y-94307054D01*
X126033381Y-94309985D01*
X126084976Y-94318778D01*
X126129841Y-94332396D01*
X126171156Y-94351200D01*
X126207781Y-94374351D01*
X126241074Y-94402364D01*
X126245591Y-94406797D01*
X126274803Y-94440154D01*
X126298966Y-94476755D01*
X126331891Y-94558713D01*
X126345135Y-94655897D01*
X126345334Y-94670396D01*
X126345334Y-94716558D01*
X126194117Y-94716558D01*
X126194117Y-94678731D01*
X126191185Y-94629073D01*
X126182385Y-94585154D01*
X126169436Y-94550538D01*
X126151721Y-94520603D01*
X126137422Y-94503426D01*
X126112735Y-94481628D01*
X126084616Y-94464740D01*
X126018397Y-94445737D01*
X125981992Y-94443525D01*
X125940661Y-94446455D01*
X125903159Y-94455241D01*
X125871666Y-94468690D01*
X125843497Y-94487212D01*
X125824547Y-94504433D01*
X125803299Y-94530701D01*
X125786795Y-94560507D01*
X125767954Y-94631327D01*
X125765745Y-94670396D01*
X125765745Y-94701812D01*
X125777473Y-94788035D01*
X125814824Y-94883311D01*
X125858161Y-94955977D01*
X126345334Y-95653168D01*
G37*
G36*
X125002006Y-94309984D02*
G01*
X125051187Y-94318767D01*
X125095360Y-94332637D01*
X125136729Y-94351847D01*
X125142926Y-94355323D01*
X125181816Y-94381071D01*
X125216163Y-94410960D01*
X125270185Y-94481323D01*
X125273169Y-94486573D01*
X125292800Y-94527890D01*
X125307029Y-94571547D01*
X125319288Y-94666267D01*
X125319331Y-94672503D01*
X125319331Y-94714452D01*
X125316400Y-94765551D01*
X125307607Y-94813057D01*
X125293919Y-94854626D01*
X125275002Y-94892989D01*
X125273169Y-94896077D01*
X125248278Y-94931735D01*
X125219263Y-94962901D01*
X125150359Y-95011038D01*
X125147139Y-95012672D01*
X125187518Y-95034747D01*
X125223770Y-95061371D01*
X125282684Y-95126532D01*
X125295242Y-95146029D01*
X125316528Y-95187242D01*
X125332447Y-95230902D01*
X125348170Y-95325684D01*
X125348731Y-95348628D01*
X125348731Y-95401110D01*
X125345799Y-95456308D01*
X125336997Y-95508328D01*
X125323130Y-95554964D01*
X125303913Y-95598695D01*
X125298356Y-95609021D01*
X125272922Y-95648607D01*
X125243232Y-95683795D01*
X125172739Y-95740011D01*
X125157672Y-95748698D01*
X125069178Y-95783685D01*
X124968826Y-95797795D01*
X124951867Y-95798065D01*
X124896224Y-95795136D01*
X124843812Y-95786352D01*
X124796773Y-95772503D01*
X124752697Y-95753326D01*
X124743956Y-95748698D01*
X124704177Y-95723621D01*
X124668564Y-95694133D01*
X124610722Y-95623315D01*
X124602173Y-95609021D01*
X124566616Y-95522863D01*
X124551334Y-95423401D01*
X124550790Y-95399095D01*
X124550790Y-95346521D01*
X124704022Y-95346521D01*
X124704022Y-95399095D01*
X124706952Y-95446163D01*
X124715739Y-95489321D01*
X124729254Y-95526140D01*
X124747884Y-95559522D01*
X124771250Y-95589055D01*
X124798244Y-95613891D01*
X124828400Y-95633525D01*
X124896865Y-95656983D01*
X124949761Y-95661503D01*
X124992489Y-95658572D01*
X125031700Y-95649774D01*
X125065298Y-95636176D01*
X125095790Y-95617404D01*
X125128272Y-95588047D01*
X125151818Y-95557942D01*
X125170311Y-95524675D01*
X125192077Y-95449022D01*
X125195500Y-95399095D01*
X125195500Y-95346521D01*
X125192569Y-95300181D01*
X125183782Y-95257482D01*
X125170182Y-95220659D01*
X125151412Y-95187065D01*
X125128272Y-95157569D01*
X125101315Y-95132420D01*
X125071204Y-95112510D01*
X125003098Y-95088705D01*
X124949761Y-95084021D01*
X124906095Y-95086952D01*
X124866234Y-95095739D01*
X124832445Y-95109235D01*
X124801993Y-95127835D01*
X124770242Y-95156470D01*
X124747202Y-95186057D01*
X124729070Y-95218971D01*
X124707511Y-95294920D01*
X124704022Y-95346521D01*
X124550790Y-95346521D01*
X124553721Y-95296019D01*
X124562514Y-95247757D01*
X124576644Y-95203081D01*
X124596291Y-95160513D01*
X124603272Y-95148135D01*
X124628631Y-95110767D01*
X124658307Y-95077615D01*
X124729469Y-95024578D01*
X124752382Y-95012672D01*
X124714674Y-94990507D01*
X124681009Y-94963806D01*
X124626610Y-94898112D01*
X124625345Y-94896077D01*
X124591797Y-94819318D01*
X124578310Y-94728840D01*
X124578084Y-94714452D01*
X124578084Y-94672503D01*
X124578205Y-94670396D01*
X124731408Y-94670396D01*
X124731408Y-94714452D01*
X124734340Y-94758218D01*
X124743147Y-94798262D01*
X124756690Y-94832310D01*
X124775378Y-94863121D01*
X124791217Y-94882430D01*
X124816851Y-94905969D01*
X124845614Y-94924251D01*
X124911044Y-94944829D01*
X124949761Y-94947551D01*
X124989832Y-94944620D01*
X125026332Y-94935827D01*
X125057229Y-94922297D01*
X125084984Y-94903639D01*
X125107297Y-94882430D01*
X125129056Y-94853959D01*
X125145809Y-94822279D01*
X125164299Y-94749300D01*
X125166099Y-94714452D01*
X125166099Y-94670396D01*
X125163168Y-94628402D01*
X125154375Y-94589817D01*
X125140745Y-94556609D01*
X125121921Y-94526411D01*
X125106198Y-94507639D01*
X125080269Y-94484161D01*
X125051300Y-94466017D01*
X124985845Y-94445935D01*
X124949761Y-94443525D01*
X124910065Y-94446457D01*
X124873634Y-94455256D01*
X124842300Y-94468916D01*
X124813853Y-94487790D01*
X124792224Y-94507639D01*
X124769591Y-94535701D01*
X124752206Y-94566750D01*
X124733271Y-94636865D01*
X124731408Y-94670396D01*
X124578205Y-94670396D01*
X124581017Y-94621304D01*
X124589820Y-94572689D01*
X124603813Y-94528431D01*
X124623239Y-94486573D01*
X124646982Y-94449055D01*
X124675271Y-94415442D01*
X124744654Y-94360445D01*
X124753389Y-94355323D01*
X124837660Y-94321019D01*
X124934555Y-94307284D01*
X124949761Y-94307054D01*
X125002006Y-94309984D01*
G37*
G36*
X133828690Y-97232345D02*
G01*
X133461135Y-98297000D01*
X133333091Y-98297000D01*
X132965536Y-97232345D01*
X133118860Y-97232345D01*
X133396014Y-98087073D01*
X133673260Y-97232345D01*
X133828690Y-97232345D01*
G37*
G36*
X132477854Y-96829985D02*
G01*
X132531191Y-96838777D01*
X132576347Y-96852184D01*
X132617313Y-96870640D01*
X132652507Y-96892967D01*
X132683883Y-96919894D01*
X132734845Y-96986950D01*
X132771668Y-97075106D01*
X132793263Y-97189831D01*
X132797650Y-97282720D01*
X132797650Y-97853974D01*
X132794719Y-97932125D01*
X132785925Y-98003076D01*
X132772753Y-98061649D01*
X132754678Y-98114201D01*
X132733565Y-98157503D01*
X132708246Y-98195642D01*
X132680272Y-98227115D01*
X132648495Y-98253920D01*
X132574566Y-98293145D01*
X132483183Y-98314481D01*
X132419653Y-98318065D01*
X132361653Y-98315135D01*
X132308450Y-98306342D01*
X132263317Y-98292919D01*
X132222327Y-98274436D01*
X132187030Y-98252049D01*
X132155516Y-98225041D01*
X132104143Y-98157703D01*
X132066774Y-98069106D01*
X132044495Y-97953778D01*
X132039550Y-97853974D01*
X132039550Y-97320547D01*
X132192874Y-97320547D01*
X132192874Y-97824573D01*
X132195805Y-97908790D01*
X132204598Y-97980799D01*
X132216864Y-98033023D01*
X132233475Y-98076208D01*
X132245356Y-98097514D01*
X132265085Y-98122865D01*
X132288782Y-98143546D01*
X132346698Y-98170511D01*
X132419653Y-98179488D01*
X132463169Y-98176558D01*
X132501654Y-98167774D01*
X132532236Y-98154739D01*
X132558686Y-98136891D01*
X132592944Y-98097514D01*
X132621985Y-98029163D01*
X132640509Y-97921484D01*
X132644418Y-97824573D01*
X132644418Y-97320547D01*
X132641489Y-97235708D01*
X132632714Y-97163265D01*
X132620474Y-97110773D01*
X132603914Y-97067463D01*
X132592944Y-97047514D01*
X132573558Y-97022209D01*
X132550176Y-97001568D01*
X132492842Y-96974671D01*
X132419653Y-96965632D01*
X132376064Y-96968563D01*
X132337420Y-96977355D01*
X132306607Y-96990424D01*
X132279886Y-97008330D01*
X132245356Y-97047514D01*
X132215900Y-97115307D01*
X132197044Y-97221489D01*
X132192874Y-97320547D01*
X132039550Y-97320547D01*
X132039550Y-97282720D01*
X132042481Y-97206239D01*
X132051273Y-97136777D01*
X132064456Y-97079357D01*
X132082546Y-97027817D01*
X132103719Y-96985259D01*
X132129115Y-96947763D01*
X132157259Y-96916731D01*
X132189240Y-96890300D01*
X132263927Y-96851531D01*
X132356580Y-96830485D01*
X132419653Y-96827054D01*
X132477854Y-96829985D01*
G37*
G36*
X131790331Y-98103834D02*
G01*
X131790331Y-98297000D01*
X131605592Y-98297000D01*
X131605592Y-98103834D01*
X131790331Y-98103834D01*
G37*
G36*
X131139393Y-97024433D02*
G01*
X131139393Y-98297000D01*
X130988177Y-98297000D01*
X130988177Y-96848029D01*
X131141500Y-96848029D01*
X131389254Y-97039179D01*
X131389254Y-97211371D01*
X131139393Y-97024433D01*
G37*
G36*
X133634029Y-89168039D02*
G01*
X133634029Y-91100000D01*
X132466426Y-91100000D01*
X132466426Y-90915230D01*
X133429720Y-90915230D01*
X133429720Y-89168039D01*
X133634029Y-89168039D01*
G37*
G36*
X131948631Y-89352930D02*
G01*
X130979842Y-89352930D01*
X130979842Y-89168039D01*
X132152940Y-89168039D01*
X132152940Y-91100000D01*
X130979842Y-91100000D01*
X130979842Y-90915230D01*
X131948631Y-90915230D01*
X131948631Y-90209612D01*
X131119793Y-90209612D01*
X131119793Y-90024842D01*
X131948631Y-90024842D01*
X131948631Y-89352930D01*
G37*
G36*
X130623003Y-91100000D02*
G01*
X129962204Y-91100000D01*
X129873668Y-91096092D01*
X129790726Y-91084368D01*
X129717452Y-91066095D01*
X129649183Y-91040834D01*
X129588103Y-91009864D01*
X129531680Y-90972398D01*
X129473596Y-90922313D01*
X129397557Y-90825401D01*
X129341139Y-90701869D01*
X129305189Y-90545625D01*
X129293101Y-90360921D01*
X129293101Y-89915666D01*
X129500219Y-89915666D01*
X129500219Y-90372034D01*
X129504126Y-90467628D01*
X129515849Y-90553975D01*
X129533336Y-90624609D01*
X129557311Y-90687564D01*
X129585316Y-90739045D01*
X129618890Y-90783935D01*
X129656244Y-90820733D01*
X129698701Y-90851492D01*
X129798913Y-90894897D01*
X129925030Y-90914439D01*
X129959395Y-90915230D01*
X130415885Y-90915230D01*
X130415885Y-89352930D01*
X129959395Y-89352930D01*
X129886874Y-89356840D01*
X129820296Y-89368572D01*
X129763686Y-89386523D01*
X129712235Y-89411262D01*
X129667661Y-89441434D01*
X129627861Y-89477883D01*
X129619287Y-89487264D01*
X129561383Y-89576232D01*
X129521092Y-89697463D01*
X129501326Y-89860455D01*
X129500219Y-89915666D01*
X129293101Y-89915666D01*
X129293101Y-89907240D01*
X129297008Y-89798849D01*
X129308729Y-89699367D01*
X129326505Y-89615352D01*
X129350949Y-89538940D01*
X129379831Y-89474378D01*
X129414538Y-89416457D01*
X129473596Y-89345847D01*
X129524514Y-89301238D01*
X129580046Y-89263055D01*
X129704332Y-89206181D01*
X129850174Y-89174418D01*
X129962204Y-89168039D01*
X130623003Y-89168039D01*
X130623003Y-91100000D01*
G37*
G36*
X128280226Y-91100000D02*
G01*
X127555069Y-91100000D01*
X127467490Y-91096092D01*
X127386333Y-91084368D01*
X127316200Y-91066318D01*
X127251684Y-91041423D01*
X127195289Y-91011245D01*
X127144016Y-90974820D01*
X127126667Y-90960048D01*
X127084490Y-90917166D01*
X127048907Y-90869691D01*
X126998044Y-90762553D01*
X126972584Y-90634628D01*
X126969863Y-90570847D01*
X126970608Y-90556926D01*
X127174294Y-90556926D01*
X127178203Y-90621446D01*
X127189932Y-90679816D01*
X127207668Y-90728149D01*
X127232051Y-90771254D01*
X127280662Y-90825715D01*
X127366158Y-90879192D01*
X127476615Y-90910448D01*
X127580226Y-90918039D01*
X128075916Y-90918039D01*
X128075916Y-90204117D01*
X127577417Y-90204117D01*
X127500525Y-90208026D01*
X127431327Y-90219757D01*
X127374961Y-90237271D01*
X127324999Y-90261295D01*
X127279318Y-90293632D01*
X127246322Y-90326874D01*
X127219538Y-90365081D01*
X127184644Y-90456095D01*
X127174294Y-90556926D01*
X126970608Y-90556926D01*
X126973768Y-90497917D01*
X126985474Y-90430028D01*
X127003705Y-90370465D01*
X127028884Y-90315397D01*
X127052417Y-90276901D01*
X127087150Y-90233138D01*
X127127791Y-90194574D01*
X127227152Y-90132858D01*
X127297515Y-90106053D01*
X127241390Y-90084053D01*
X127190719Y-90055604D01*
X127146933Y-90022002D01*
X127108226Y-89982405D01*
X127079039Y-89943632D01*
X127048594Y-89890919D01*
X127025594Y-89835284D01*
X127002027Y-89716617D01*
X127001038Y-89688886D01*
X127205069Y-89688886D01*
X127208976Y-89750892D01*
X127220693Y-89806464D01*
X127238271Y-89851710D01*
X127262391Y-89891561D01*
X127308628Y-89939480D01*
X127396392Y-89989421D01*
X127510168Y-90017133D01*
X127594270Y-90022034D01*
X128075916Y-90022034D01*
X128075916Y-89350122D01*
X127591461Y-89350122D01*
X127516222Y-89354030D01*
X127448685Y-89365753D01*
X127393863Y-89383231D01*
X127345407Y-89407192D01*
X127305819Y-89435484D01*
X127273721Y-89467802D01*
X127247760Y-89505159D01*
X127214271Y-89594886D01*
X127205069Y-89688886D01*
X127001038Y-89688886D01*
X127000637Y-89677651D01*
X127004545Y-89601847D01*
X127016269Y-89531814D01*
X127034324Y-89471491D01*
X127059227Y-89416223D01*
X127089687Y-89367773D01*
X127126499Y-89324012D01*
X127150480Y-89301029D01*
X127249298Y-89234228D01*
X127371700Y-89189896D01*
X127523574Y-89169136D01*
X127571921Y-89168039D01*
X128280226Y-89168039D01*
X128280226Y-91100000D01*
G37*
G36*
X126576754Y-89680460D02*
G01*
X126576754Y-91100000D01*
X126386367Y-91100000D01*
X126386367Y-90201308D01*
X126382461Y-90136699D01*
X126370752Y-90077382D01*
X126352724Y-90026618D01*
X126327874Y-89980473D01*
X126295386Y-89938014D01*
X126258784Y-89903337D01*
X126218233Y-89875948D01*
X126128194Y-89843575D01*
X126058715Y-89837264D01*
X125995122Y-89841181D01*
X125935447Y-89852967D01*
X125913146Y-89859734D01*
X125913146Y-89669225D01*
X126016705Y-89660921D01*
X126081183Y-89664831D01*
X126142018Y-89676573D01*
X126233715Y-89712700D01*
X126278599Y-89741194D01*
X126318967Y-89776150D01*
X126386372Y-89865843D01*
X126389175Y-89870847D01*
X126389175Y-89680460D01*
X126576754Y-89680460D01*
G37*
G36*
X125612483Y-89680460D02*
G01*
X125612483Y-91100000D01*
X125422096Y-91100000D01*
X125422096Y-89680460D01*
X125612483Y-89680460D01*
G37*
G36*
X125618101Y-89196127D02*
G01*
X125618101Y-89448063D01*
X125416600Y-89448063D01*
X125416600Y-89196127D01*
X125618101Y-89196127D01*
G37*
G36*
X124612503Y-89656402D02*
G01*
X124677069Y-89668126D01*
X124734386Y-89686519D01*
X124787736Y-89711976D01*
X124880970Y-89782545D01*
X124890745Y-89792445D01*
X124954475Y-89881453D01*
X124999053Y-89998869D01*
X125022645Y-90152478D01*
X125025201Y-90232083D01*
X125025201Y-90428087D01*
X125021293Y-90526522D01*
X125009570Y-90615591D01*
X124992056Y-90688681D01*
X124968038Y-90753981D01*
X124939981Y-90807529D01*
X124906340Y-90854394D01*
X124890745Y-90871877D01*
X124845793Y-90913545D01*
X124796951Y-90947959D01*
X124690507Y-90994207D01*
X124567856Y-91012916D01*
X124546363Y-91013293D01*
X124476228Y-91009383D01*
X124411684Y-90997642D01*
X124315431Y-90960048D01*
X124269386Y-90930306D01*
X124228505Y-90894518D01*
X124162780Y-90806053D01*
X124162780Y-91004867D01*
X124166688Y-91081178D01*
X124178412Y-91148746D01*
X124195607Y-91201981D01*
X124219110Y-91248164D01*
X124246545Y-91284694D01*
X124279408Y-91315159D01*
X124359681Y-91357320D01*
X124465562Y-91376405D01*
X124495927Y-91377215D01*
X124562689Y-91373303D01*
X124622350Y-91361549D01*
X124670368Y-91344067D01*
X124712555Y-91320083D01*
X124712937Y-91319818D01*
X124748618Y-91290298D01*
X124776410Y-91256744D01*
X124795369Y-91221443D01*
X124807305Y-91182577D01*
X124809535Y-91170097D01*
X124999922Y-91170097D01*
X124991245Y-91228427D01*
X124975084Y-91282363D01*
X124952651Y-91329800D01*
X124923386Y-91373232D01*
X124853010Y-91441695D01*
X124752107Y-91498530D01*
X124626178Y-91532750D01*
X124495927Y-91542445D01*
X124417979Y-91538538D01*
X124345857Y-91526814D01*
X124283576Y-91508741D01*
X124226400Y-91483810D01*
X124176196Y-91453340D01*
X124130717Y-91416518D01*
X124108191Y-91394068D01*
X124069947Y-91347423D01*
X124037867Y-91295927D01*
X123991995Y-91177629D01*
X123970739Y-91034183D01*
X123969584Y-90988014D01*
X123969584Y-90260048D01*
X124162780Y-90260048D01*
X124162780Y-90414043D01*
X124166686Y-90490358D01*
X124178402Y-90560305D01*
X124196291Y-90619628D01*
X124220917Y-90673473D01*
X124252417Y-90722034D01*
X124284731Y-90758009D01*
X124321881Y-90787434D01*
X124408766Y-90826120D01*
X124518397Y-90839637D01*
X124575800Y-90835729D01*
X124627405Y-90824005D01*
X124669807Y-90806293D01*
X124707290Y-90781951D01*
X124766148Y-90715555D01*
X124807469Y-90620290D01*
X124829663Y-90486768D01*
X124832005Y-90416852D01*
X124832005Y-90246127D01*
X124828097Y-90158449D01*
X124816375Y-90080947D01*
X124799285Y-90020292D01*
X124775955Y-89967764D01*
X124749196Y-89926891D01*
X124717233Y-89892795D01*
X124641488Y-89846412D01*
X124544749Y-89824724D01*
X124507162Y-89823220D01*
X124448057Y-89827128D01*
X124394459Y-89838852D01*
X124349678Y-89856707D01*
X124309632Y-89881284D01*
X124249608Y-89942288D01*
X124197810Y-90039702D01*
X124168512Y-90163162D01*
X124162780Y-90260048D01*
X123969584Y-90260048D01*
X123969584Y-89669225D01*
X124162780Y-89669225D01*
X124162780Y-89868039D01*
X124196721Y-89815251D01*
X124235475Y-89769868D01*
X124276836Y-89733544D01*
X124322553Y-89703929D01*
X124425919Y-89665072D01*
X124543554Y-89652494D01*
X124612503Y-89656402D01*
G37*
G36*
X123550096Y-89168039D02*
G01*
X123550096Y-91100000D01*
X123359709Y-91100000D01*
X123359709Y-90195690D01*
X123355803Y-90127227D01*
X123344095Y-90065607D01*
X123326513Y-90015119D01*
X123302392Y-89970384D01*
X123268729Y-89928244D01*
X123231997Y-89896015D01*
X123190929Y-89870546D01*
X123096934Y-89840081D01*
X123026440Y-89834455D01*
X122965963Y-89838364D01*
X122911161Y-89850095D01*
X122865518Y-89867919D01*
X122824732Y-89892447D01*
X122785739Y-89926901D01*
X122734536Y-90004156D01*
X122705239Y-90106559D01*
X122698910Y-90195690D01*
X122698910Y-91100000D01*
X122508523Y-91100000D01*
X122508523Y-90167725D01*
X122512431Y-90085827D01*
X122524154Y-90010796D01*
X122541999Y-89947376D01*
X122566558Y-89889841D01*
X122596120Y-89840608D01*
X122631746Y-89796679D01*
X122633087Y-89795254D01*
X122674293Y-89757428D01*
X122720204Y-89726001D01*
X122825538Y-89682502D01*
X122953913Y-89664161D01*
X122978935Y-89663729D01*
X123048630Y-89667638D01*
X123113275Y-89679367D01*
X123169508Y-89697555D01*
X123221259Y-89722680D01*
X123309126Y-89791484D01*
X123359709Y-89854117D01*
X123359709Y-89168039D01*
X123550096Y-89168039D01*
G37*
G36*
X121788983Y-89831646D02*
G01*
X121469758Y-89831646D01*
X121469758Y-89680460D01*
X121788983Y-89680460D01*
X121788983Y-89266102D01*
X121982180Y-89355739D01*
X121982180Y-89680460D01*
X122203341Y-89680460D01*
X122203341Y-89831646D01*
X121982180Y-89831646D01*
X121982180Y-90747313D01*
X121978274Y-90812588D01*
X121966565Y-90871767D01*
X121948805Y-90921061D01*
X121924394Y-90965132D01*
X121891199Y-91006210D01*
X121855469Y-91037409D01*
X121814954Y-91062320D01*
X121719279Y-91093334D01*
X121637797Y-91100000D01*
X121494915Y-91100000D01*
X121494915Y-90932083D01*
X121606900Y-90932083D01*
X121654982Y-90928175D01*
X121695707Y-90916457D01*
X121725513Y-90899646D01*
X121749599Y-90876769D01*
X121780060Y-90814923D01*
X121788983Y-90738886D01*
X121788983Y-89831646D01*
G37*
G36*
X121136977Y-89680460D02*
G01*
X121136977Y-91100000D01*
X120946590Y-91100000D01*
X120946590Y-90195690D01*
X120942684Y-90127227D01*
X120930976Y-90065607D01*
X120913394Y-90015119D01*
X120889272Y-89970384D01*
X120855609Y-89928244D01*
X120818877Y-89896015D01*
X120777810Y-89870546D01*
X120683814Y-89840081D01*
X120613321Y-89834455D01*
X120552843Y-89838364D01*
X120498042Y-89850095D01*
X120452399Y-89867919D01*
X120411613Y-89892447D01*
X120372619Y-89926901D01*
X120321416Y-90004156D01*
X120292119Y-90106559D01*
X120285791Y-90195690D01*
X120285791Y-91100000D01*
X120095404Y-91100000D01*
X120095404Y-90167725D01*
X120099312Y-90085744D01*
X120111041Y-90010535D01*
X120128914Y-89946819D01*
X120153523Y-89888915D01*
X120217159Y-89796720D01*
X120256842Y-89759182D01*
X120301433Y-89727854D01*
X120405085Y-89683898D01*
X120533200Y-89664441D01*
X120565815Y-89663729D01*
X120634666Y-89667643D01*
X120699603Y-89679407D01*
X120788321Y-89711235D01*
X120836839Y-89738797D01*
X120880370Y-89772625D01*
X120949399Y-89854117D01*
X120949399Y-89680460D01*
X121136977Y-89680460D01*
G37*
G36*
X119256788Y-89664829D02*
G01*
X119328639Y-89676552D01*
X119391926Y-89694830D01*
X119450687Y-89720097D01*
X119503458Y-89751345D01*
X119551973Y-89789192D01*
X119571869Y-89807833D01*
X119640881Y-89898262D01*
X119689293Y-90014276D01*
X119716092Y-90162342D01*
X119720247Y-90260048D01*
X119720247Y-90506489D01*
X119716339Y-90603927D01*
X119704615Y-90692662D01*
X119686967Y-90766473D01*
X119662730Y-90832947D01*
X119634180Y-90888342D01*
X119599894Y-90937352D01*
X119571869Y-90968475D01*
X119525355Y-91009408D01*
X119474379Y-91043749D01*
X119360034Y-91092365D01*
X119224708Y-91115264D01*
X119174242Y-91116852D01*
X119089913Y-91112945D01*
X119012399Y-91101226D01*
X118946447Y-91083330D01*
X118886376Y-91058690D01*
X118792002Y-90996441D01*
X118750868Y-90955514D01*
X118716948Y-90910494D01*
X118671702Y-90811349D01*
X118653686Y-90695301D01*
X118653394Y-90677215D01*
X118653394Y-90663293D01*
X118838286Y-90663293D01*
X118838286Y-90671720D01*
X118842193Y-90724260D01*
X118853917Y-90771669D01*
X118871796Y-90811085D01*
X118896410Y-90846078D01*
X118923648Y-90873220D01*
X119002097Y-90919686D01*
X119105288Y-90943399D01*
X119160198Y-90946004D01*
X119227068Y-90942095D01*
X119287793Y-90930357D01*
X119338392Y-90912566D01*
X119383765Y-90888088D01*
X119431796Y-90849406D01*
X119482054Y-90777958D01*
X119515936Y-90672999D01*
X119529812Y-90522578D01*
X119529859Y-90512107D01*
X119529859Y-90428087D01*
X118642281Y-90428087D01*
X118642281Y-90260048D01*
X118643312Y-90234891D01*
X118832668Y-90234891D01*
X118832668Y-90285327D01*
X119529859Y-90285327D01*
X119529859Y-90254431D01*
X119525951Y-90166006D01*
X119514228Y-90088926D01*
X119497417Y-90030412D01*
X119474537Y-89980727D01*
X119434605Y-89928244D01*
X119396747Y-89896455D01*
X119354404Y-89871221D01*
X119256578Y-89840477D01*
X119179859Y-89834455D01*
X119115114Y-89838362D01*
X119056480Y-89850078D01*
X119007740Y-89867831D01*
X118964193Y-89892236D01*
X118924992Y-89924092D01*
X118876133Y-89993280D01*
X118844142Y-90095256D01*
X118832668Y-90234891D01*
X118643312Y-90234891D01*
X118646189Y-90164710D01*
X118657912Y-90077789D01*
X118675592Y-90005283D01*
X118699881Y-89939889D01*
X118728582Y-89885157D01*
X118763067Y-89836644D01*
X118789193Y-89807833D01*
X118835721Y-89766886D01*
X118886630Y-89732613D01*
X119000370Y-89684441D01*
X119134466Y-89662245D01*
X119179859Y-89660921D01*
X119256788Y-89664829D01*
G37*
G36*
X118207040Y-91004867D02*
G01*
X118104980Y-91066365D01*
X117980588Y-91104151D01*
X117834570Y-91116852D01*
X117746462Y-91112944D01*
X117665285Y-91101221D01*
X117595976Y-91083293D01*
X117532658Y-91058600D01*
X117445369Y-91006210D01*
X117403506Y-90969554D01*
X117368729Y-90928463D01*
X117321516Y-90836288D01*
X117300743Y-90725951D01*
X117299800Y-90694068D01*
X117303709Y-90630559D01*
X117315439Y-90573331D01*
X117333112Y-90526293D01*
X117357393Y-90484546D01*
X117399207Y-90437857D01*
X117489761Y-90378389D01*
X117624118Y-90329410D01*
X117708540Y-90310484D01*
X117893432Y-90276901D01*
X117966627Y-90260120D01*
X118026341Y-90237719D01*
X118081011Y-90202651D01*
X118105623Y-90175741D01*
X118123586Y-90144262D01*
X118139588Y-90068066D01*
X118139751Y-90058426D01*
X118135842Y-90011930D01*
X118124109Y-89969930D01*
X118106054Y-89934739D01*
X118081146Y-89903504D01*
X118057197Y-89882083D01*
X117977742Y-89839874D01*
X117869638Y-89819200D01*
X117826143Y-89817725D01*
X117755432Y-89821636D01*
X117692547Y-89833385D01*
X117642556Y-89850721D01*
X117598948Y-89874466D01*
X117588129Y-89882083D01*
X117555785Y-89910949D01*
X117530950Y-89943967D01*
X117504414Y-90018500D01*
X117501422Y-90058426D01*
X117501422Y-90066852D01*
X117316531Y-90066852D01*
X117316531Y-90050122D01*
X117320437Y-89993997D01*
X117332153Y-89941541D01*
X117350668Y-89894781D01*
X117376321Y-89851375D01*
X117449305Y-89774380D01*
X117456604Y-89768632D01*
X117559379Y-89709258D01*
X117686423Y-89672733D01*
X117831761Y-89660921D01*
X117910973Y-89664828D01*
X117984461Y-89676546D01*
X118048269Y-89694661D01*
X118107017Y-89719660D01*
X118187378Y-89771441D01*
X118228875Y-89809924D01*
X118262910Y-89852432D01*
X118288632Y-89897163D01*
X118307444Y-89945631D01*
X118324370Y-90054669D01*
X118324521Y-90066852D01*
X118320611Y-90130687D01*
X118308873Y-90188063D01*
X118291253Y-90234928D01*
X118267053Y-90276381D01*
X118229388Y-90318911D01*
X118142906Y-90376586D01*
X118013456Y-90423420D01*
X117927016Y-90442009D01*
X117750550Y-90472906D01*
X117669490Y-90491404D01*
X117603919Y-90515018D01*
X117547584Y-90548499D01*
X117523221Y-90572978D01*
X117504783Y-90602728D01*
X117485588Y-90679146D01*
X117484570Y-90705303D01*
X117488475Y-90752722D01*
X117500184Y-90795344D01*
X117518113Y-90830762D01*
X117542801Y-90862024D01*
X117575550Y-90890073D01*
X117662303Y-90932195D01*
X117779564Y-90952964D01*
X117826143Y-90954431D01*
X117896136Y-90950523D01*
X117958940Y-90938799D01*
X118009962Y-90921287D01*
X118055002Y-90897271D01*
X118071241Y-90885921D01*
X118104616Y-90855786D01*
X118130409Y-90821569D01*
X118158524Y-90745061D01*
X118162221Y-90699685D01*
X118162221Y-90691259D01*
X118346991Y-90691259D01*
X118346991Y-90702494D01*
X118343083Y-90763922D01*
X118331360Y-90820985D01*
X118313051Y-90870995D01*
X118287733Y-90917079D01*
X118217158Y-90996516D01*
X118207040Y-91004867D01*
G37*
G36*
X116913530Y-91004867D02*
G01*
X116811470Y-91066365D01*
X116687078Y-91104151D01*
X116541060Y-91116852D01*
X116452952Y-91112944D01*
X116371775Y-91101221D01*
X116302466Y-91083293D01*
X116239148Y-91058600D01*
X116151859Y-91006210D01*
X116109996Y-90969554D01*
X116075219Y-90928463D01*
X116028006Y-90836288D01*
X116007233Y-90725951D01*
X116006290Y-90694068D01*
X116010199Y-90630559D01*
X116021929Y-90573331D01*
X116039601Y-90526293D01*
X116063883Y-90484546D01*
X116105697Y-90437857D01*
X116196251Y-90378389D01*
X116330608Y-90329410D01*
X116415030Y-90310484D01*
X116599922Y-90276901D01*
X116673117Y-90260120D01*
X116732831Y-90237719D01*
X116787501Y-90202651D01*
X116812113Y-90175741D01*
X116830076Y-90144262D01*
X116846078Y-90068066D01*
X116846241Y-90058426D01*
X116842332Y-90011930D01*
X116830599Y-89969930D01*
X116812544Y-89934739D01*
X116787636Y-89903504D01*
X116763687Y-89882083D01*
X116684232Y-89839874D01*
X116576128Y-89819200D01*
X116532633Y-89817725D01*
X116461922Y-89821636D01*
X116399037Y-89833385D01*
X116349046Y-89850721D01*
X116305438Y-89874466D01*
X116294618Y-89882083D01*
X116262275Y-89910949D01*
X116237440Y-89943967D01*
X116210904Y-90018500D01*
X116207912Y-90058426D01*
X116207912Y-90066852D01*
X116023020Y-90066852D01*
X116023020Y-90050122D01*
X116026927Y-89993997D01*
X116038643Y-89941541D01*
X116057158Y-89894781D01*
X116082811Y-89851375D01*
X116155795Y-89774380D01*
X116163094Y-89768632D01*
X116265868Y-89709258D01*
X116392913Y-89672733D01*
X116538251Y-89660921D01*
X116617463Y-89664828D01*
X116690951Y-89676546D01*
X116754758Y-89694661D01*
X116813507Y-89719660D01*
X116893868Y-89771441D01*
X116935365Y-89809924D01*
X116969400Y-89852432D01*
X116995122Y-89897163D01*
X117013934Y-89945631D01*
X117030860Y-90054669D01*
X117031011Y-90066852D01*
X117027101Y-90130687D01*
X117015363Y-90188063D01*
X116997743Y-90234928D01*
X116973543Y-90276381D01*
X116935878Y-90318911D01*
X116849396Y-90376586D01*
X116719945Y-90423420D01*
X116633505Y-90442009D01*
X116457040Y-90472906D01*
X116375980Y-90491404D01*
X116310408Y-90515018D01*
X116254074Y-90548499D01*
X116229711Y-90572978D01*
X116211273Y-90602728D01*
X116192078Y-90679146D01*
X116191060Y-90705303D01*
X116194965Y-90752722D01*
X116206674Y-90795344D01*
X116224603Y-90830762D01*
X116249291Y-90862024D01*
X116282040Y-90890073D01*
X116368793Y-90932195D01*
X116486054Y-90952964D01*
X116532633Y-90954431D01*
X116602626Y-90950523D01*
X116665430Y-90938799D01*
X116716452Y-90921287D01*
X116761492Y-90897271D01*
X116777731Y-90885921D01*
X116811106Y-90855786D01*
X116836899Y-90821569D01*
X116865014Y-90745061D01*
X116868711Y-90699685D01*
X116868711Y-90691259D01*
X117053481Y-90691259D01*
X117053481Y-90702494D01*
X117049573Y-90763922D01*
X117037849Y-90820985D01*
X117019541Y-90870995D01*
X116994222Y-90917079D01*
X116923648Y-90996516D01*
X116913530Y-91004867D01*
G37*
G36*
X113958680Y-89352930D02*
G01*
X113958680Y-89168039D01*
X115263425Y-89168039D01*
X115263425Y-89352930D01*
X114711803Y-89352930D01*
X114711803Y-91100000D01*
X114510302Y-91100000D01*
X114510302Y-89352930D01*
X113958680Y-89352930D01*
G37*
G36*
X113531736Y-89664829D02*
G01*
X113603587Y-89676552D01*
X113666873Y-89694830D01*
X113725635Y-89720097D01*
X113778406Y-89751345D01*
X113826920Y-89789192D01*
X113846817Y-89807833D01*
X113915829Y-89898262D01*
X113964241Y-90014276D01*
X113991039Y-90162342D01*
X113995194Y-90260048D01*
X113995194Y-90506489D01*
X113991286Y-90603927D01*
X113979563Y-90692662D01*
X113961915Y-90766473D01*
X113937678Y-90832947D01*
X113909127Y-90888342D01*
X113874842Y-90937352D01*
X113846817Y-90968475D01*
X113800303Y-91009408D01*
X113749326Y-91043749D01*
X113634982Y-91092365D01*
X113499656Y-91115264D01*
X113449189Y-91116852D01*
X113364861Y-91112945D01*
X113287346Y-91101226D01*
X113221394Y-91083330D01*
X113161324Y-91058690D01*
X113066949Y-90996441D01*
X113025815Y-90955514D01*
X112991895Y-90910494D01*
X112946650Y-90811349D01*
X112928634Y-90695301D01*
X112928341Y-90677215D01*
X112928341Y-90663293D01*
X113113233Y-90663293D01*
X113113233Y-90671720D01*
X113117141Y-90724260D01*
X113128865Y-90771669D01*
X113146743Y-90811085D01*
X113171357Y-90846078D01*
X113198596Y-90873220D01*
X113277045Y-90919686D01*
X113380236Y-90943399D01*
X113435145Y-90946004D01*
X113502016Y-90942095D01*
X113562741Y-90930357D01*
X113613340Y-90912566D01*
X113658713Y-90888088D01*
X113706743Y-90849406D01*
X113757001Y-90777958D01*
X113790883Y-90672999D01*
X113804760Y-90522578D01*
X113804807Y-90512107D01*
X113804807Y-90428087D01*
X112917228Y-90428087D01*
X112917228Y-90260048D01*
X112918259Y-90234891D01*
X113107616Y-90234891D01*
X113107616Y-90285327D01*
X113804807Y-90285327D01*
X113804807Y-90254431D01*
X113800899Y-90166006D01*
X113789175Y-90088926D01*
X113772365Y-90030412D01*
X113749484Y-89980727D01*
X113709552Y-89928244D01*
X113671695Y-89896455D01*
X113629352Y-89871221D01*
X113531526Y-89840477D01*
X113454807Y-89834455D01*
X113390061Y-89838362D01*
X113331427Y-89850078D01*
X113282688Y-89867831D01*
X113239141Y-89892236D01*
X113199939Y-89924092D01*
X113151081Y-89993280D01*
X113119090Y-90095256D01*
X113107616Y-90234891D01*
X112918259Y-90234891D01*
X112921136Y-90164710D01*
X112932860Y-90077789D01*
X112950539Y-90005283D01*
X112974828Y-89939889D01*
X113003530Y-89885157D01*
X113038014Y-89836644D01*
X113064140Y-89807833D01*
X113110669Y-89766886D01*
X113161577Y-89732613D01*
X113275318Y-89684441D01*
X113409414Y-89662245D01*
X113454807Y-89660921D01*
X113531736Y-89664829D01*
G37*
G36*
X112481988Y-91004867D02*
G01*
X112379927Y-91066365D01*
X112255536Y-91104151D01*
X112109517Y-91116852D01*
X112021410Y-91112944D01*
X111940233Y-91101221D01*
X111870923Y-91083293D01*
X111807606Y-91058600D01*
X111720316Y-91006210D01*
X111678454Y-90969554D01*
X111643676Y-90928463D01*
X111596464Y-90836288D01*
X111575690Y-90725951D01*
X111574748Y-90694068D01*
X111578656Y-90630559D01*
X111590387Y-90573331D01*
X111608059Y-90526293D01*
X111632341Y-90484546D01*
X111674154Y-90437857D01*
X111764709Y-90378389D01*
X111899066Y-90329410D01*
X111983488Y-90310484D01*
X112168380Y-90276901D01*
X112241575Y-90260120D01*
X112301289Y-90237719D01*
X112355958Y-90202651D01*
X112380570Y-90175741D01*
X112398534Y-90144262D01*
X112414536Y-90068066D01*
X112414699Y-90058426D01*
X112410790Y-90011930D01*
X112399057Y-89969930D01*
X112381002Y-89934739D01*
X112356094Y-89903504D01*
X112332145Y-89882083D01*
X112252690Y-89839874D01*
X112144586Y-89819200D01*
X112101091Y-89817725D01*
X112030379Y-89821636D01*
X111967495Y-89833385D01*
X111917504Y-89850721D01*
X111873896Y-89874466D01*
X111863076Y-89882083D01*
X111830732Y-89910949D01*
X111805898Y-89943967D01*
X111779362Y-90018500D01*
X111776370Y-90058426D01*
X111776370Y-90066852D01*
X111591478Y-90066852D01*
X111591478Y-90050122D01*
X111595385Y-89993997D01*
X111607101Y-89941541D01*
X111625616Y-89894781D01*
X111651268Y-89851375D01*
X111724253Y-89774380D01*
X111731551Y-89768632D01*
X111834326Y-89709258D01*
X111961371Y-89672733D01*
X112106709Y-89660921D01*
X112185921Y-89664828D01*
X112259409Y-89676546D01*
X112323216Y-89694661D01*
X112381965Y-89719660D01*
X112462326Y-89771441D01*
X112503823Y-89809924D01*
X112537858Y-89852432D01*
X112563580Y-89897163D01*
X112582391Y-89945631D01*
X112599318Y-90054669D01*
X112599468Y-90066852D01*
X112595559Y-90130687D01*
X112583821Y-90188063D01*
X112566201Y-90234928D01*
X112542000Y-90276381D01*
X112504336Y-90318911D01*
X112417854Y-90376586D01*
X112288403Y-90423420D01*
X112201963Y-90442009D01*
X112025498Y-90472906D01*
X111944438Y-90491404D01*
X111878866Y-90515018D01*
X111822532Y-90548499D01*
X111798169Y-90572978D01*
X111779731Y-90602728D01*
X111760536Y-90679146D01*
X111759517Y-90705303D01*
X111763423Y-90752722D01*
X111775132Y-90795344D01*
X111793061Y-90830762D01*
X111817749Y-90862024D01*
X111850498Y-90890073D01*
X111937250Y-90932195D01*
X112054512Y-90952964D01*
X112101091Y-90954431D01*
X112171084Y-90950523D01*
X112233888Y-90938799D01*
X112284910Y-90921287D01*
X112329950Y-90897271D01*
X112346189Y-90885921D01*
X112379564Y-90855786D01*
X112405357Y-90821569D01*
X112433472Y-90745061D01*
X112437169Y-90699685D01*
X112437169Y-90691259D01*
X112621939Y-90691259D01*
X112621939Y-90702494D01*
X112618031Y-90763922D01*
X112606307Y-90820985D01*
X112587999Y-90870995D01*
X112562680Y-90917079D01*
X112492106Y-90996516D01*
X112481988Y-91004867D01*
G37*
G36*
X110950463Y-89831646D02*
G01*
X110631237Y-89831646D01*
X110631237Y-89680460D01*
X110950463Y-89680460D01*
X110950463Y-89266102D01*
X111143659Y-89355739D01*
X111143659Y-89680460D01*
X111364821Y-89680460D01*
X111364821Y-89831646D01*
X111143659Y-89831646D01*
X111143659Y-90747313D01*
X111139753Y-90812588D01*
X111128045Y-90871767D01*
X111110285Y-90921061D01*
X111085874Y-90965132D01*
X111052678Y-91006210D01*
X111016949Y-91037409D01*
X110976434Y-91062320D01*
X110880759Y-91093334D01*
X110799277Y-91100000D01*
X110656394Y-91100000D01*
X110656394Y-90932083D01*
X110768380Y-90932083D01*
X110816462Y-90928175D01*
X110857187Y-90916457D01*
X110886993Y-90899646D01*
X110911079Y-90876769D01*
X110941540Y-90814923D01*
X110950463Y-90738886D01*
X110950463Y-89831646D01*
G37*
G36*
X109678690Y-91100000D02*
G01*
X109474381Y-91100000D01*
X109474381Y-90302058D01*
X108984308Y-90302058D01*
X108896508Y-90298150D01*
X108814813Y-90286427D01*
X108743637Y-90268294D01*
X108677859Y-90243265D01*
X108619887Y-90212805D01*
X108566882Y-90176009D01*
X108540519Y-90153681D01*
X108497232Y-90109188D01*
X108460576Y-90060156D01*
X108407706Y-89950119D01*
X108380372Y-89819775D01*
X108376754Y-89744818D01*
X108581185Y-89744818D01*
X108585093Y-89812443D01*
X108596817Y-89873227D01*
X108614388Y-89922850D01*
X108638502Y-89966755D01*
X108690362Y-90024842D01*
X108777033Y-90077793D01*
X108890210Y-90109248D01*
X109001161Y-90117288D01*
X109474381Y-90117288D01*
X109474381Y-89352930D01*
X109001161Y-89352930D01*
X108923685Y-89356840D01*
X108853722Y-89368578D01*
X108796345Y-89386162D01*
X108745234Y-89410304D01*
X108690362Y-89449528D01*
X108657852Y-89483490D01*
X108631074Y-89522818D01*
X108594419Y-89618814D01*
X108581185Y-89744818D01*
X108376754Y-89744818D01*
X108380662Y-89661874D01*
X108392389Y-89585068D01*
X108410449Y-89518743D01*
X108435361Y-89457790D01*
X108465663Y-89404419D01*
X108502262Y-89355975D01*
X108539175Y-89317882D01*
X108587957Y-89278163D01*
X108641648Y-89244549D01*
X108764674Y-89195379D01*
X108913019Y-89170556D01*
X108984308Y-89168039D01*
X109678690Y-89168039D01*
X109678690Y-91100000D01*
G37*
G36*
X107919165Y-90944661D02*
G01*
X107867123Y-90989320D01*
X107810517Y-91027528D01*
X107684125Y-91084435D01*
X107536258Y-91116155D01*
X107423596Y-91122470D01*
X107332867Y-91118562D01*
X107248176Y-91106842D01*
X107173907Y-91088654D01*
X107104993Y-91063536D01*
X107043875Y-91032907D01*
X106987687Y-90995896D01*
X106947567Y-90962857D01*
X106901869Y-90916256D01*
X106863014Y-90865308D01*
X106806616Y-90752588D01*
X106776385Y-90621343D01*
X106771224Y-90531646D01*
X106771224Y-90520411D01*
X106970037Y-90520411D01*
X106970037Y-90531646D01*
X106973946Y-90596713D01*
X106985674Y-90656600D01*
X107003750Y-90707973D01*
X107028689Y-90754790D01*
X107090327Y-90827058D01*
X107180806Y-90887075D01*
X107293079Y-90923374D01*
X107420787Y-90934891D01*
X107498764Y-90930983D01*
X107569816Y-90919260D01*
X107629247Y-90901504D01*
X107682779Y-90877090D01*
X107728134Y-90847757D01*
X107768175Y-90812425D01*
X107831709Y-90724890D01*
X107875453Y-90610055D01*
X107897723Y-90460479D01*
X107899625Y-90394504D01*
X107899625Y-89890509D01*
X107895718Y-89788623D01*
X107884000Y-89697510D01*
X107866738Y-89624589D01*
X107843132Y-89560427D01*
X107816029Y-89509478D01*
X107783638Y-89465836D01*
X107777748Y-89459298D01*
X107738363Y-89422469D01*
X107693916Y-89391673D01*
X107589485Y-89348071D01*
X107458988Y-89328444D01*
X107423596Y-89327651D01*
X107347265Y-89331559D01*
X107277271Y-89343283D01*
X107217902Y-89361183D01*
X107163988Y-89385831D01*
X107091792Y-89436828D01*
X107054440Y-89475612D01*
X107023917Y-89518770D01*
X106983829Y-89616280D01*
X106970037Y-89733705D01*
X106970037Y-89742131D01*
X106765606Y-89742131D01*
X106765606Y-89733705D01*
X106769516Y-89658213D01*
X106781258Y-89586769D01*
X106799824Y-89522255D01*
X106825577Y-89461469D01*
X106846817Y-89422906D01*
X106883470Y-89369739D01*
X106926036Y-89321897D01*
X107028030Y-89242684D01*
X107077748Y-89215666D01*
X107214399Y-89166730D01*
X107371685Y-89144201D01*
X107423596Y-89142882D01*
X107512979Y-89146790D01*
X107596833Y-89158516D01*
X107671094Y-89176817D01*
X107740399Y-89202123D01*
X107802555Y-89233177D01*
X107860095Y-89270754D01*
X107919165Y-89320690D01*
X107996615Y-89416917D01*
X108054070Y-89539048D01*
X108090921Y-89692943D01*
X108103935Y-89882083D01*
X108103935Y-90383269D01*
X108100026Y-90490518D01*
X108088300Y-90589054D01*
X108070499Y-90672415D01*
X108046009Y-90748331D01*
X108017023Y-90812647D01*
X107982174Y-90870443D01*
X107919165Y-90944661D01*
G37*
G36*
X106356988Y-91100000D02*
G01*
X105631831Y-91100000D01*
X105544253Y-91096092D01*
X105463095Y-91084368D01*
X105392962Y-91066318D01*
X105328446Y-91041423D01*
X105272051Y-91011245D01*
X105220778Y-90974820D01*
X105203429Y-90960048D01*
X105161252Y-90917166D01*
X105125669Y-90869691D01*
X105074806Y-90762553D01*
X105049346Y-90634628D01*
X105046625Y-90570847D01*
X105047370Y-90556926D01*
X105251056Y-90556926D01*
X105254965Y-90621446D01*
X105266694Y-90679816D01*
X105284430Y-90728149D01*
X105308813Y-90771254D01*
X105357424Y-90825715D01*
X105442920Y-90879192D01*
X105553377Y-90910448D01*
X105656988Y-90918039D01*
X106152678Y-90918039D01*
X106152678Y-90204117D01*
X105654179Y-90204117D01*
X105577287Y-90208026D01*
X105508089Y-90219757D01*
X105451723Y-90237271D01*
X105401761Y-90261295D01*
X105356080Y-90293632D01*
X105323084Y-90326874D01*
X105296300Y-90365081D01*
X105261406Y-90456095D01*
X105251056Y-90556926D01*
X105047370Y-90556926D01*
X105050530Y-90497917D01*
X105062236Y-90430028D01*
X105080467Y-90370465D01*
X105105646Y-90315397D01*
X105129179Y-90276901D01*
X105163912Y-90233138D01*
X105204553Y-90194574D01*
X105303914Y-90132858D01*
X105374277Y-90106053D01*
X105318152Y-90084053D01*
X105267481Y-90055604D01*
X105223695Y-90022002D01*
X105184988Y-89982405D01*
X105155801Y-89943632D01*
X105125356Y-89890919D01*
X105102356Y-89835284D01*
X105078789Y-89716617D01*
X105077800Y-89688886D01*
X105281831Y-89688886D01*
X105285738Y-89750892D01*
X105297455Y-89806464D01*
X105315033Y-89851710D01*
X105339153Y-89891561D01*
X105385390Y-89939480D01*
X105473154Y-89989421D01*
X105586930Y-90017133D01*
X105671032Y-90022034D01*
X106152678Y-90022034D01*
X106152678Y-89350122D01*
X105668223Y-89350122D01*
X105592985Y-89354030D01*
X105525447Y-89365753D01*
X105470625Y-89383231D01*
X105422169Y-89407192D01*
X105382581Y-89435484D01*
X105350483Y-89467802D01*
X105324522Y-89505159D01*
X105291033Y-89594886D01*
X105281831Y-89688886D01*
X105077800Y-89688886D01*
X105077399Y-89677651D01*
X105081307Y-89601847D01*
X105093031Y-89531814D01*
X105111086Y-89471491D01*
X105135989Y-89416223D01*
X105166449Y-89367773D01*
X105203261Y-89324012D01*
X105227242Y-89301029D01*
X105326060Y-89234228D01*
X105448462Y-89189896D01*
X105600336Y-89169136D01*
X105648683Y-89168039D01*
X106356988Y-89168039D01*
X106356988Y-91100000D01*
G37*
X176784000Y-103886000D02*
X182118000Y-103886000D01*
X182118000Y-128270000D01*
X176784000Y-128270000D01*
X176784000Y-103886000D01*
G36*
X176784000Y-103886000D02*
G01*
X182118000Y-103886000D01*
X182118000Y-128270000D01*
X176784000Y-128270000D01*
X176784000Y-103886000D01*
G37*
X155194000Y-103886000D02*
X160528000Y-103886000D01*
X160528000Y-128270000D01*
X155194000Y-128270000D01*
X155194000Y-103886000D01*
G36*
X155194000Y-103886000D02*
G01*
X160528000Y-103886000D01*
X160528000Y-128270000D01*
X155194000Y-128270000D01*
X155194000Y-103886000D01*
G37*
X133604000Y-103886000D02*
X138938000Y-103886000D01*
X138938000Y-128270000D01*
X133604000Y-128270000D01*
X133604000Y-103886000D01*
G36*
X133604000Y-103886000D02*
G01*
X138938000Y-103886000D01*
X138938000Y-128270000D01*
X133604000Y-128270000D01*
X133604000Y-103886000D01*
G37*
X112014000Y-103886000D02*
X117348000Y-103886000D01*
X117348000Y-128270000D01*
X112014000Y-128270000D01*
X112014000Y-103886000D01*
G36*
X112014000Y-103886000D02*
G01*
X117348000Y-103886000D01*
X117348000Y-128270000D01*
X112014000Y-128270000D01*
X112014000Y-103886000D01*
G37*
X112014000Y-59690000D02*
X117348000Y-59690000D01*
X117348000Y-84074000D01*
X112014000Y-84074000D01*
X112014000Y-59690000D01*
G36*
X112014000Y-59690000D02*
G01*
X117348000Y-59690000D01*
X117348000Y-84074000D01*
X112014000Y-84074000D01*
X112014000Y-59690000D01*
G37*
X133604000Y-59690000D02*
X138938000Y-59690000D01*
X138938000Y-84074000D01*
X133604000Y-84074000D01*
X133604000Y-59690000D01*
G36*
X133604000Y-59690000D02*
G01*
X138938000Y-59690000D01*
X138938000Y-84074000D01*
X133604000Y-84074000D01*
X133604000Y-59690000D01*
G37*
X155194000Y-59690000D02*
X160528000Y-59690000D01*
X160528000Y-84074000D01*
X155194000Y-84074000D01*
X155194000Y-59690000D01*
G36*
X155194000Y-59690000D02*
G01*
X160528000Y-59690000D01*
X160528000Y-84074000D01*
X155194000Y-84074000D01*
X155194000Y-59690000D01*
G37*
X176784000Y-59436000D02*
X182118000Y-59436000D01*
X182118000Y-83820000D01*
X176784000Y-83820000D01*
X176784000Y-59436000D01*
G36*
X176784000Y-59436000D02*
G01*
X182118000Y-59436000D01*
X182118000Y-83820000D01*
X176784000Y-83820000D01*
X176784000Y-59436000D01*
G37*
%LPC*%
D11*
%TO.C,SW8*%
X153944333Y-62245250D03*
D12*
X153944333Y-64785250D03*
X153944333Y-67325250D03*
X153944333Y-69865250D03*
X153944333Y-72405250D03*
X153944333Y-74945250D03*
X153944333Y-77485250D03*
X153944333Y-80025250D03*
X161564333Y-80025250D03*
X161564333Y-77485250D03*
X161564333Y-74945250D03*
X161564333Y-72405250D03*
X161564333Y-69865250D03*
X161564333Y-67325250D03*
X161564333Y-64785250D03*
X161564333Y-62245250D03*
%TD*%
D11*
%TO.C,SW6*%
X110744000Y-62245250D03*
D12*
X110744000Y-64785250D03*
X110744000Y-67325250D03*
X110744000Y-69865250D03*
X110744000Y-72405250D03*
X110744000Y-74945250D03*
X110744000Y-77485250D03*
X110744000Y-80025250D03*
X118364000Y-80025250D03*
X118364000Y-77485250D03*
X118364000Y-74945250D03*
X118364000Y-72405250D03*
X118364000Y-69865250D03*
X118364000Y-67325250D03*
X118364000Y-64785250D03*
X118364000Y-62245250D03*
%TD*%
D11*
%TO.C,SW7*%
X132344167Y-62245250D03*
D12*
X132344167Y-64785250D03*
X132344167Y-67325250D03*
X132344167Y-69865250D03*
X132344167Y-72405250D03*
X132344167Y-74945250D03*
X132344167Y-77485250D03*
X132344167Y-80025250D03*
X139964167Y-80025250D03*
X139964167Y-77485250D03*
X139964167Y-74945250D03*
X139964167Y-72405250D03*
X139964167Y-69865250D03*
X139964167Y-67325250D03*
X139964167Y-64785250D03*
X139964167Y-62245250D03*
%TD*%
D11*
%TO.C,SW5*%
X175544500Y-62245250D03*
D12*
X175544500Y-64785250D03*
X175544500Y-67325250D03*
X175544500Y-69865250D03*
X175544500Y-72405250D03*
X175544500Y-74945250D03*
X175544500Y-77485250D03*
X175544500Y-80025250D03*
X183164500Y-80025250D03*
X183164500Y-77485250D03*
X183164500Y-74945250D03*
X183164500Y-72405250D03*
X183164500Y-69865250D03*
X183164500Y-67325250D03*
X183164500Y-64785250D03*
X183164500Y-62245250D03*
%TD*%
D11*
%TO.C,SW3*%
X153969333Y-107957500D03*
D12*
X153969333Y-110497500D03*
X153969333Y-113037500D03*
X153969333Y-115577500D03*
X153969333Y-118117500D03*
X153969333Y-120657500D03*
X153969333Y-123197500D03*
X153969333Y-125737500D03*
X161589333Y-125737500D03*
X161589333Y-123197500D03*
X161589333Y-120657500D03*
X161589333Y-118117500D03*
X161589333Y-115577500D03*
X161589333Y-113037500D03*
X161589333Y-110497500D03*
X161589333Y-107957500D03*
%TD*%
D11*
%TO.C,SW4*%
X175582000Y-107964000D03*
D12*
X175582000Y-110504000D03*
X175582000Y-113044000D03*
X175582000Y-115584000D03*
X175582000Y-118124000D03*
X175582000Y-120664000D03*
X175582000Y-123204000D03*
X175582000Y-125744000D03*
X183202000Y-125744000D03*
X183202000Y-123204000D03*
X183202000Y-120664000D03*
X183202000Y-118124000D03*
X183202000Y-115584000D03*
X183202000Y-113044000D03*
X183202000Y-110504000D03*
X183202000Y-107964000D03*
%TD*%
D11*
%TO.C,SW2*%
X132356667Y-107957500D03*
D12*
X132356667Y-110497500D03*
X132356667Y-113037500D03*
X132356667Y-115577500D03*
X132356667Y-118117500D03*
X132356667Y-120657500D03*
X132356667Y-123197500D03*
X132356667Y-125737500D03*
X139976667Y-125737500D03*
X139976667Y-123197500D03*
X139976667Y-120657500D03*
X139976667Y-118117500D03*
X139976667Y-115577500D03*
X139976667Y-113037500D03*
X139976667Y-110497500D03*
X139976667Y-107957500D03*
%TD*%
D11*
%TO.C,SW1*%
X110744000Y-107957500D03*
D12*
X110744000Y-110497500D03*
X110744000Y-113037500D03*
X110744000Y-115577500D03*
X110744000Y-118117500D03*
X110744000Y-120657500D03*
X110744000Y-123197500D03*
X110744000Y-125737500D03*
X118364000Y-125737500D03*
X118364000Y-123197500D03*
X118364000Y-120657500D03*
X118364000Y-118117500D03*
X118364000Y-115577500D03*
X118364000Y-113037500D03*
X118364000Y-110497500D03*
X118364000Y-107957500D03*
%TD*%
D13*
%TO.C,D16*%
X115824000Y-86106000D03*
D14*
X113284000Y-86106000D03*
%TD*%
D13*
%TO.C,D19*%
X137424167Y-86106000D03*
D14*
X134884167Y-86106000D03*
%TD*%
D13*
%TO.C,D22*%
X159024333Y-86106000D03*
D14*
X156484333Y-86106000D03*
%TD*%
D13*
%TO.C,D13*%
X180624500Y-86106000D03*
D14*
X178084500Y-86106000D03*
%TD*%
D15*
%TO.C,JP66*%
X202184000Y-95504000D03*
D16*
X202184000Y-92964000D03*
%TD*%
D17*
%TO.C,TP9*%
X193040000Y-63246000D03*
%TD*%
%TO.C,TP10*%
X193040000Y-84582000D03*
%TD*%
%TO.C,TP11*%
X201168000Y-63246000D03*
%TD*%
%TO.C,TP12*%
X201168000Y-84582000D03*
%TD*%
D18*
%TO.C,J2*%
X202356500Y-71379000D03*
D19*
X202356500Y-76459000D03*
%TD*%
D13*
%TO.C,D7*%
X159001833Y-101600000D03*
D14*
X156461833Y-101600000D03*
%TD*%
D13*
%TO.C,D10*%
X180614500Y-101606500D03*
D14*
X178074500Y-101606500D03*
%TD*%
D17*
%TO.C,TP4*%
X200914000Y-124206000D03*
%TD*%
%TO.C,TP3*%
X200914000Y-102870000D03*
%TD*%
%TO.C,TP1*%
X192786000Y-102870000D03*
%TD*%
%TO.C,TP2*%
X192786000Y-124206000D03*
%TD*%
D19*
%TO.C,J1*%
X202102500Y-116083000D03*
D18*
X202102500Y-111003000D03*
%TD*%
D13*
%TO.C,D4*%
X137389167Y-101600000D03*
D14*
X134849167Y-101600000D03*
%TD*%
D13*
%TO.C,D1*%
X115776500Y-101600000D03*
D14*
X113236500Y-101600000D03*
%TD*%
%LPD*%
M02*
