%TF.GenerationSoftware,KiCad,Pcbnew,9.0.5*%
%TF.CreationDate,2025-10-28T22:46:26-07:00*%
%TF.ProjectId,LED_resistance,4c45445f-7265-4736-9973-74616e63652e,rev?*%
%TF.SameCoordinates,Original*%
%TF.FileFunction,Soldermask,Bot*%
%TF.FilePolarity,Negative*%
%FSLAX46Y46*%
G04 Gerber Fmt 4.6, Leading zero omitted, Abs format (unit mm)*
G04 Created by KiCad (PCBNEW 9.0.5) date 2025-10-28 22:46:26*
%MOMM*%
%LPD*%
G01*
G04 APERTURE LIST*
G04 Aperture macros list*
%AMRoundRect*
0 Rectangle with rounded corners*
0 $1 Rounding radius*
0 $2 $3 $4 $5 $6 $7 $8 $9 X,Y pos of 4 corners*
0 Add a 4 corners polygon primitive as box body*
4,1,4,$2,$3,$4,$5,$6,$7,$8,$9,$2,$3,0*
0 Add four circle primitives for the rounded corners*
1,1,$1+$1,$2,$3*
1,1,$1+$1,$4,$5*
1,1,$1+$1,$6,$7*
1,1,$1+$1,$8,$9*
0 Add four rect primitives between the rounded corners*
20,1,$1+$1,$2,$3,$4,$5,0*
20,1,$1+$1,$4,$5,$6,$7,0*
20,1,$1+$1,$6,$7,$8,$9,0*
20,1,$1+$1,$8,$9,$2,$3,0*%
G04 Aperture macros list end*
%ADD10RoundRect,0.250000X-0.550000X-0.550000X0.550000X-0.550000X0.550000X0.550000X-0.550000X0.550000X0*%
%ADD11C,1.600000*%
%ADD12C,1.800000*%
%ADD13R,1.800000X1.800000*%
%ADD14C,1.700000*%
%ADD15R,1.700000X1.700000*%
%ADD16C,6.000000*%
%ADD17C,2.600000*%
%ADD18RoundRect,0.250000X1.050000X-1.050000X1.050000X1.050000X-1.050000X1.050000X-1.050000X-1.050000X0*%
G04 APERTURE END LIST*
D10*
%TO.C,SW8*%
X153944333Y-62245250D03*
D11*
X153944333Y-64785250D03*
X153944333Y-67325250D03*
X153944333Y-69865250D03*
X153944333Y-72405250D03*
X153944333Y-74945250D03*
X153944333Y-77485250D03*
X153944333Y-80025250D03*
X161564333Y-80025250D03*
X161564333Y-77485250D03*
X161564333Y-74945250D03*
X161564333Y-72405250D03*
X161564333Y-69865250D03*
X161564333Y-67325250D03*
X161564333Y-64785250D03*
X161564333Y-62245250D03*
%TD*%
D10*
%TO.C,SW6*%
X110744000Y-62245250D03*
D11*
X110744000Y-64785250D03*
X110744000Y-67325250D03*
X110744000Y-69865250D03*
X110744000Y-72405250D03*
X110744000Y-74945250D03*
X110744000Y-77485250D03*
X110744000Y-80025250D03*
X118364000Y-80025250D03*
X118364000Y-77485250D03*
X118364000Y-74945250D03*
X118364000Y-72405250D03*
X118364000Y-69865250D03*
X118364000Y-67325250D03*
X118364000Y-64785250D03*
X118364000Y-62245250D03*
%TD*%
D10*
%TO.C,SW7*%
X132344167Y-62245250D03*
D11*
X132344167Y-64785250D03*
X132344167Y-67325250D03*
X132344167Y-69865250D03*
X132344167Y-72405250D03*
X132344167Y-74945250D03*
X132344167Y-77485250D03*
X132344167Y-80025250D03*
X139964167Y-80025250D03*
X139964167Y-77485250D03*
X139964167Y-74945250D03*
X139964167Y-72405250D03*
X139964167Y-69865250D03*
X139964167Y-67325250D03*
X139964167Y-64785250D03*
X139964167Y-62245250D03*
%TD*%
D10*
%TO.C,SW5*%
X175544500Y-62245250D03*
D11*
X175544500Y-64785250D03*
X175544500Y-67325250D03*
X175544500Y-69865250D03*
X175544500Y-72405250D03*
X175544500Y-74945250D03*
X175544500Y-77485250D03*
X175544500Y-80025250D03*
X183164500Y-80025250D03*
X183164500Y-77485250D03*
X183164500Y-74945250D03*
X183164500Y-72405250D03*
X183164500Y-69865250D03*
X183164500Y-67325250D03*
X183164500Y-64785250D03*
X183164500Y-62245250D03*
%TD*%
D10*
%TO.C,SW3*%
X153969333Y-107957500D03*
D11*
X153969333Y-110497500D03*
X153969333Y-113037500D03*
X153969333Y-115577500D03*
X153969333Y-118117500D03*
X153969333Y-120657500D03*
X153969333Y-123197500D03*
X153969333Y-125737500D03*
X161589333Y-125737500D03*
X161589333Y-123197500D03*
X161589333Y-120657500D03*
X161589333Y-118117500D03*
X161589333Y-115577500D03*
X161589333Y-113037500D03*
X161589333Y-110497500D03*
X161589333Y-107957500D03*
%TD*%
D10*
%TO.C,SW4*%
X175582000Y-107964000D03*
D11*
X175582000Y-110504000D03*
X175582000Y-113044000D03*
X175582000Y-115584000D03*
X175582000Y-118124000D03*
X175582000Y-120664000D03*
X175582000Y-123204000D03*
X175582000Y-125744000D03*
X183202000Y-125744000D03*
X183202000Y-123204000D03*
X183202000Y-120664000D03*
X183202000Y-118124000D03*
X183202000Y-115584000D03*
X183202000Y-113044000D03*
X183202000Y-110504000D03*
X183202000Y-107964000D03*
%TD*%
D10*
%TO.C,SW2*%
X132356667Y-107957500D03*
D11*
X132356667Y-110497500D03*
X132356667Y-113037500D03*
X132356667Y-115577500D03*
X132356667Y-118117500D03*
X132356667Y-120657500D03*
X132356667Y-123197500D03*
X132356667Y-125737500D03*
X139976667Y-125737500D03*
X139976667Y-123197500D03*
X139976667Y-120657500D03*
X139976667Y-118117500D03*
X139976667Y-115577500D03*
X139976667Y-113037500D03*
X139976667Y-110497500D03*
X139976667Y-107957500D03*
%TD*%
D10*
%TO.C,SW1*%
X110744000Y-107957500D03*
D11*
X110744000Y-110497500D03*
X110744000Y-113037500D03*
X110744000Y-115577500D03*
X110744000Y-118117500D03*
X110744000Y-120657500D03*
X110744000Y-123197500D03*
X110744000Y-125737500D03*
X118364000Y-125737500D03*
X118364000Y-123197500D03*
X118364000Y-120657500D03*
X118364000Y-118117500D03*
X118364000Y-115577500D03*
X118364000Y-113037500D03*
X118364000Y-110497500D03*
X118364000Y-107957500D03*
%TD*%
D12*
%TO.C,D16*%
X115824000Y-86106000D03*
D13*
X113284000Y-86106000D03*
%TD*%
D12*
%TO.C,D19*%
X137424167Y-86106000D03*
D13*
X134884167Y-86106000D03*
%TD*%
D12*
%TO.C,D22*%
X159024333Y-86106000D03*
D13*
X156484333Y-86106000D03*
%TD*%
D12*
%TO.C,D13*%
X180624500Y-86106000D03*
D13*
X178084500Y-86106000D03*
%TD*%
D14*
%TO.C,JP66*%
X202184000Y-95504000D03*
D15*
X202184000Y-92964000D03*
%TD*%
D16*
%TO.C,TP9*%
X193040000Y-63246000D03*
%TD*%
%TO.C,TP10*%
X193040000Y-84582000D03*
%TD*%
%TO.C,TP11*%
X201168000Y-63246000D03*
%TD*%
%TO.C,TP12*%
X201168000Y-84582000D03*
%TD*%
D17*
%TO.C,J2*%
X202356500Y-71379000D03*
D18*
X202356500Y-76459000D03*
%TD*%
D12*
%TO.C,D7*%
X159001833Y-101600000D03*
D13*
X156461833Y-101600000D03*
%TD*%
D12*
%TO.C,D10*%
X180614500Y-101606500D03*
D13*
X178074500Y-101606500D03*
%TD*%
D16*
%TO.C,TP4*%
X200914000Y-124206000D03*
%TD*%
%TO.C,TP3*%
X200914000Y-102870000D03*
%TD*%
%TO.C,TP1*%
X192786000Y-102870000D03*
%TD*%
%TO.C,TP2*%
X192786000Y-124206000D03*
%TD*%
D18*
%TO.C,J1*%
X202102500Y-116083000D03*
D17*
X202102500Y-111003000D03*
%TD*%
D12*
%TO.C,D4*%
X137389167Y-101600000D03*
D13*
X134849167Y-101600000D03*
%TD*%
D12*
%TO.C,D1*%
X115776500Y-101600000D03*
D13*
X113236500Y-101600000D03*
%TD*%
M02*
