M48
; DRILL file {KiCad 9.0.5} date 2025-10-28T22:46:26-0700
; FORMAT={-:-/ absolute / inch / decimal}
; #@! TF.CreationDate,2025-10-28T22:46:26-07:00
; #@! TF.GenerationSoftware,Kicad,Pcbnew,9.0.5
; #@! TF.FileFunction,Plated,1,2,PTH
FMAT,2
INCH
; #@! TA.AperFunction,Plated,PTH,ComponentDrill
T1C0.0354
; #@! TA.AperFunction,Plated,PTH,ComponentDrill
T2C0.0394
; #@! TA.AperFunction,Plated,PTH,ComponentDrill
T3C0.0512
; #@! TA.AperFunction,Plated,PTH,ComponentDrill
T4C0.1969
%
G90
G05
T1
X4.4581Y-4.0
X4.46Y-3.39
X4.5581Y-4.0
X4.56Y-3.39
X5.309Y-4.0
X5.3104Y-3.39
X5.409Y-4.0
X5.4104Y-3.39
X6.1599Y-4.0
X6.1608Y-3.39
X6.2599Y-4.0
X6.2608Y-3.39
X7.0108Y-4.0003
X7.0112Y-3.39
X7.1108Y-4.0003
X7.1112Y-3.39
T2
X4.36Y-2.4506
X4.36Y-2.5506
X4.36Y-2.6506
X4.36Y-2.7506
X4.36Y-2.8506
X4.36Y-2.9506
X4.36Y-3.0506
X4.36Y-3.1506
X4.36Y-4.2503
X4.36Y-4.3503
X4.36Y-4.4503
X4.36Y-4.5503
X4.36Y-4.6503
X4.36Y-4.7503
X4.36Y-4.8503
X4.36Y-4.9503
X4.66Y-2.4506
X4.66Y-2.5506
X4.66Y-2.6506
X4.66Y-2.7506
X4.66Y-2.8506
X4.66Y-2.9506
X4.66Y-3.0506
X4.66Y-3.1506
X4.66Y-4.2503
X4.66Y-4.3503
X4.66Y-4.4503
X4.66Y-4.5503
X4.66Y-4.6503
X4.66Y-4.7503
X4.66Y-4.8503
X4.66Y-4.9503
X5.2104Y-2.4506
X5.2104Y-2.5506
X5.2104Y-2.6506
X5.2104Y-2.7506
X5.2104Y-2.8506
X5.2104Y-2.9506
X5.2104Y-3.0506
X5.2104Y-3.1506
X5.2109Y-4.2503
X5.2109Y-4.3503
X5.2109Y-4.4503
X5.2109Y-4.5503
X5.2109Y-4.6503
X5.2109Y-4.7503
X5.2109Y-4.8503
X5.2109Y-4.9503
X5.5104Y-2.4506
X5.5104Y-2.5506
X5.5104Y-2.6506
X5.5104Y-2.7506
X5.5104Y-2.8506
X5.5104Y-2.9506
X5.5104Y-3.0506
X5.5104Y-3.1506
X5.5109Y-4.2503
X5.5109Y-4.3503
X5.5109Y-4.4503
X5.5109Y-4.5503
X5.5109Y-4.6503
X5.5109Y-4.7503
X5.5109Y-4.8503
X5.5109Y-4.9503
X6.0608Y-2.4506
X6.0608Y-2.5506
X6.0608Y-2.6506
X6.0608Y-2.7506
X6.0608Y-2.8506
X6.0608Y-2.9506
X6.0608Y-3.0506
X6.0608Y-3.1506
X6.0618Y-4.2503
X6.0618Y-4.3503
X6.0618Y-4.4503
X6.0618Y-4.5503
X6.0618Y-4.6503
X6.0618Y-4.7503
X6.0618Y-4.8503
X6.0618Y-4.9503
X6.3608Y-2.4506
X6.3608Y-2.5506
X6.3608Y-2.6506
X6.3608Y-2.7506
X6.3608Y-2.8506
X6.3608Y-2.9506
X6.3608Y-3.0506
X6.3608Y-3.1506
X6.3618Y-4.2503
X6.3618Y-4.3503
X6.3618Y-4.4503
X6.3618Y-4.5503
X6.3618Y-4.6503
X6.3618Y-4.7503
X6.3618Y-4.8503
X6.3618Y-4.9503
X6.9112Y-2.4506
X6.9112Y-2.5506
X6.9112Y-2.6506
X6.9112Y-2.7506
X6.9112Y-2.8506
X6.9112Y-2.9506
X6.9112Y-3.0506
X6.9112Y-3.1506
X6.9127Y-4.2506
X6.9127Y-4.3506
X6.9127Y-4.4506
X6.9127Y-4.5506
X6.9127Y-4.6506
X6.9127Y-4.7506
X6.9127Y-4.8506
X6.9127Y-4.9506
X7.2112Y-2.4506
X7.2112Y-2.5506
X7.2112Y-2.6506
X7.2112Y-2.7506
X7.2112Y-2.8506
X7.2112Y-2.9506
X7.2112Y-3.0506
X7.2112Y-3.1506
X7.2127Y-4.2506
X7.2127Y-4.3506
X7.2127Y-4.4506
X7.2127Y-4.5506
X7.2127Y-4.6506
X7.2127Y-4.7506
X7.2127Y-4.8506
X7.2127Y-4.9506
X7.96Y-3.66
X7.96Y-3.76
T3
X7.9568Y-4.3702
X7.9568Y-4.5702
X7.9668Y-2.8102
X7.9668Y-3.0102
T4
X7.59Y-4.05
X7.59Y-4.89
X7.6Y-2.49
X7.6Y-3.33
X7.91Y-4.05
X7.91Y-4.89
X7.92Y-2.49
X7.92Y-3.33
M30
